# File generated by ImageToStl.com - Free Image and 3D model conversion tools

mtllib pillars.mtl

o obj1
v -84.38034058 1.42529297 0
v -84.56126285 2.45135343 0
v -87.38034058 1.42529297 0
v -85.08220744 3.35365593 0
v -85.8803407 4.02336931 0
v -86.85939628 4.37971616 0
v -87.90128541 4.37971616 0
v -88.88034093 4.02336907 0
v -89.67847419 3.35365546 0
v -90.19941854 2.45135295 0
v -90.38034058 1.42529244 0
v -90.19941831 0.39923203 0
v -89.67847347 -0.50307035 0
v -88.88033998 -1.17278361 0
v -87.90128434 -1.52913046 0
v -86.85939521 -1.52913022 0
v -85.88033986 -1.1727829 0
v -85.08220673 -0.50306916 0
v -84.56126237 0.39923346 0
v -84.38034058 1.42529297 -6
v -84.56126285 2.45135343 -6
v -85.08220744 3.35365593 -6
v -85.8803407 4.02336931 -6
v -86.85939628 4.37971616 -6
v -87.90128541 4.37971616 -6
v -88.88034093 4.02336907 -6
v -89.67847419 3.35365546 -6
v -90.19941854 2.45135295 -6
v -90.38034058 1.42529244 -6
v -90.19941831 0.39923203 -6
v -89.67847347 -0.50307035 -6
v -88.88033998 -1.17278361 -6
v -87.90128434 -1.52913046 -6
v -86.85939521 -1.52913022 -6
v -85.88033986 -1.1727829 -6
v -85.08220673 -0.50306916 -6
v -84.56126237 0.39923346 -6
v -84.38034058 1.42529297 -12
v -84.56126285 2.45135343 -12
v -85.08220744 3.35365593 -12
v -85.8803407 4.02336931 -12
v -86.85939628 4.37971616 -12
v -87.90128541 4.37971616 -12
v -88.88034093 4.02336907 -12
v -89.67847419 3.35365546 -12
v -90.19941854 2.45135295 -12
v -90.38034058 1.42529244 -12
v -90.19941831 0.39923203 -12
v -89.67847347 -0.50307035 -12
v -88.88033998 -1.17278361 -12
v -87.90128434 -1.52913046 -12
v -86.85939521 -1.52913022 -12
v -85.88033986 -1.1727829 -12
v -85.08220673 -0.50306916 -12
v -84.56126237 0.39923346 -12
v -84.38034058 1.42529297 -18
v -84.56126285 2.45135343 -18
v -85.08220744 3.35365593 -18
v -85.8803407 4.02336931 -18
v -86.85939628 4.37971616 -18
v -87.90128541 4.37971616 -18
v -88.88034093 4.02336907 -18
v -89.67847419 3.35365546 -18
v -90.19941854 2.45135295 -18
v -90.38034058 1.42529244 -18
v -90.19941831 0.39923203 -18
v -89.67847347 -0.50307035 -18
v -88.88033998 -1.17278361 -18
v -87.90128434 -1.52913046 -18
v -86.85939521 -1.52913022 -18
v -85.88033986 -1.1727829 -18
v -85.08220673 -0.50306916 -18
v -84.56126237 0.39923346 -18
v -84.38034058 1.42529297 -24
v -84.56126285 2.45135343 -24
v -85.08220744 3.35365593 -24
v -85.8803407 4.02336931 -24
v -86.85939628 4.37971616 -24
v -87.90128541 4.37971616 -24
v -88.88034093 4.02336907 -24
v -89.67847419 3.35365546 -24
v -90.19941854 2.45135295 -24
v -90.38034058 1.42529244 -24
v -90.19941831 0.39923203 -24
v -89.67847347 -0.50307035 -24
v -88.88033998 -1.17278361 -24
v -87.90128434 -1.52913046 -24
v -86.85939521 -1.52913022 -24
v -85.88033986 -1.1727829 -24
v -85.08220673 -0.50306916 -24
v -84.56126237 0.39923346 -24
v -84.38034058 1.42529297 -30
v -84.56126285 2.45135343 -30
v -85.08220744 3.35365593 -30
v -85.8803407 4.02336931 -30
v -86.85939628 4.37971616 -30
v -87.90128541 4.37971616 -30
v -88.88034093 4.02336907 -30
v -89.67847419 3.35365546 -30
v -90.19941854 2.45135295 -30
v -90.38034058 1.42529244 -30
v -90.19941831 0.39923203 -30
v -89.67847347 -0.50307035 -30
v -88.88033998 -1.17278361 -30
v -87.90128434 -1.52913046 -30
v -86.85939521 -1.52913022 -30
v -85.88033986 -1.1727829 -30
v -85.08220673 -0.50306916 -30
v -84.56126237 0.39923346 -30
v -87.38034058 1.42529297 -30
v -62.68392944 -56.50485611 0
v -63.51601982 -55.87783051 0
v -64.87799072 -58.55084991 0
v -64.51238251 -55.57321167 0
v -65.55284309 -55.62773895 0
v -66.51190758 -56.03483963 0
v -67.27389717 -56.74540329 0
v -67.74690437 -57.67373657 0
v -67.87387848 -58.70785904 0
v -67.63950539 -59.72304535 0
v -67.072052 -60.59684372 0
v -66.23996162 -61.22386932 0
v -65.24359894 -61.52848816 0
v -64.20313644 -61.47396088 0
v -63.24407387 -61.0668602 0
v -62.48208427 -60.35629272 0
v -62.00907707 -59.42796326 0
v -61.88210297 -58.39384079 0
v -62.11647606 -57.37865448 0
v -62.68392944 -56.50485611 -6
v -63.51601982 -55.87783051 -6
v -64.51238251 -55.57321167 -6
v -65.55284309 -55.62773895 -6
v -66.51190758 -56.03483963 -6
v -67.27389717 -56.74540329 -6
v -67.74690437 -57.67373657 -6
v -67.87387848 -58.70785904 -6
v -67.63950539 -59.72304535 -6
v -67.072052 -60.59684372 -6
v -66.23996162 -61.22386932 -6
v -65.24359894 -61.52848816 -6
v -64.20313644 -61.47396088 -6
v -63.24407387 -61.0668602 -6
v -62.48208427 -60.35629272 -6
v -62.00907707 -59.42796326 -6
v -61.88210297 -58.39384079 -6
v -62.11647606 -57.37865448 -6
v -62.68392944 -56.50485611 -12
v -63.51601982 -55.87783051 -12
v -64.51238251 -55.57321167 -12
v -65.55284309 -55.62773895 -12
v -66.51190758 -56.03483963 -12
v -67.27389717 -56.74540329 -12
v -67.74690437 -57.67373657 -12
v -67.87387848 -58.70785904 -12
v -67.63950539 -59.72304535 -12
v -67.072052 -60.59684372 -12
v -66.23996162 -61.22386932 -12
v -65.24359894 -61.52848816 -12
v -64.20313644 -61.47396088 -12
v -63.24407387 -61.0668602 -12
v -62.48208427 -60.35629272 -12
v -62.00907707 -59.42796326 -12
v -61.88210297 -58.39384079 -12
v -62.11647606 -57.37865448 -12
v -62.68392944 -56.50485611 -18
v -63.51601982 -55.87783051 -18
v -64.51238251 -55.57321167 -18
v -65.55284309 -55.62773895 -18
v -66.51190758 -56.03483963 -18
v -67.27389717 -56.74540329 -18
v -67.74690437 -57.67373657 -18
v -67.87387848 -58.70785904 -18
v -67.63950539 -59.72304535 -18
v -67.072052 -60.59684372 -18
v -66.23996162 -61.22386932 -18
v -65.24359894 -61.52848816 -18
v -64.20313644 -61.47396088 -18
v -63.24407387 -61.0668602 -18
v -62.48208427 -60.35629272 -18
v -62.00907707 -59.42796326 -18
v -61.88210297 -58.39384079 -18
v -62.11647606 -57.37865448 -18
v -62.68392944 -56.50485611 -24
v -63.51601982 -55.87783051 -24
v -64.51238251 -55.57321167 -24
v -65.55284309 -55.62773895 -24
v -66.51190758 -56.03483963 -24
v -67.27389717 -56.74540329 -24
v -67.74690437 -57.67373657 -24
v -67.87387848 -58.70785904 -24
v -67.63950539 -59.72304535 -24
v -67.072052 -60.59684372 -24
v -66.23996162 -61.22386932 -24
v -65.24359894 -61.52848816 -24
v -64.20313644 -61.47396088 -24
v -63.24407387 -61.0668602 -24
v -62.48208427 -60.35629272 -24
v -62.00907707 -59.42796326 -24
v -61.88210297 -58.39384079 -24
v -62.11647606 -57.37865448 -24
v -62.68392944 -56.50485611 -30
v -63.51601982 -55.87783051 -30
v -64.51238251 -55.57321167 -30
v -65.55284309 -55.62773895 -30
v -66.51190758 -56.03483963 -30
v -67.27389717 -56.74540329 -30
v -67.74690437 -57.67373657 -30
v -67.87387848 -58.70785904 -30
v -67.63950539 -59.72304535 -30
v -67.072052 -60.59684372 -30
v -66.23996162 -61.22386932 -30
v -65.24359894 -61.52848816 -30
v -64.20313644 -61.47396088 -30
v -63.24407387 -61.0668602 -30
v -62.48208427 -60.35629272 -30
v -62.00907707 -59.42796326 -30
v -61.88210297 -58.39384079 -30
v -62.11647606 -57.37865448 -30
v -64.87799072 -58.55084991 -30
v -0.68888092 -84.38956451 0
v -1.7133255 -84.57943726 0
v -0.66270447 -87.38945007 0
v -2.61104584 -85.10823059 0
v -3.27377319 -85.91217804 0
v -3.62155914 -86.89431 0
v -3.61247253 -87.93615723 0
v -3.24758911 -88.9120636 0
v -2.57093811 -89.70432281 0
v -1.66412354 -90.21737671 0
v -0.63652039 -90.38933563 0
v 0.38791656 -90.19946289 0
v 1.2856369 -89.67066956 0
v 1.94836426 -88.86672211 0
v 2.29615021 -87.88459015 0
v 2.2870636 -86.84274292 0
v 1.92218018 -85.86683655 0
v 1.24552917 -85.07457733 0
v 0.3387146 -84.56152344 0
v -0.68888092 -84.38956451 -6
v -1.7133255 -84.57943726 -6
v -2.61104584 -85.10823059 -6
v -3.27377319 -85.91217804 -6
v -3.62155914 -86.89431 -6
v -3.61247253 -87.93615723 -6
v -3.24758911 -88.9120636 -6
v -2.57093811 -89.70432281 -6
v -1.66412354 -90.21737671 -6
v -0.63652039 -90.38933563 -6
v 0.38791656 -90.19946289 -6
v 1.2856369 -89.67066956 -6
v 1.94836426 -88.86672211 -6
v 2.29615021 -87.88459015 -6
v 2.2870636 -86.84274292 -6
v 1.92218018 -85.86683655 -6
v 1.24552917 -85.07457733 -6
v 0.3387146 -84.56152344 -6
v -0.68888092 -84.38956451 -12
v -1.7133255 -84.57943726 -12
v -2.61104584 -85.10823059 -12
v -3.27377319 -85.91217804 -12
v -3.62155914 -86.89431 -12
v -3.61247253 -87.93615723 -12
v -3.24758911 -88.9120636 -12
v -2.57093811 -89.70432281 -12
v -1.66412354 -90.21737671 -12
v -0.63652039 -90.38933563 -12
v 0.38791656 -90.19946289 -12
v 1.2856369 -89.67066956 -12
v 1.94836426 -88.86672211 -12
v 2.29615021 -87.88459015 -12
v 2.2870636 -86.84274292 -12
v 1.92218018 -85.86683655 -12
v 1.24552917 -85.07457733 -12
v 0.3387146 -84.56152344 -12
v -0.68888092 -84.38956451 -18
v -1.7133255 -84.57943726 -18
v -2.61104584 -85.10823059 -18
v -3.27377319 -85.91217804 -18
v -3.62155914 -86.89431 -18
v -3.61247253 -87.93615723 -18
v -3.24758911 -88.9120636 -18
v -2.57093811 -89.70432281 -18
v -1.66412354 -90.21737671 -18
v -0.63652039 -90.38933563 -18
v 0.38791656 -90.19946289 -18
v 1.2856369 -89.67066956 -18
v 1.94836426 -88.86672211 -18
v 2.29615021 -87.88459015 -18
v 2.2870636 -86.84274292 -18
v 1.92218018 -85.86683655 -18
v 1.24552917 -85.07457733 -18
v 0.3387146 -84.56152344 -18
v -0.68888092 -84.38956451 -24
v -1.7133255 -84.57943726 -24
v -2.61104584 -85.10823059 -24
v -3.27377319 -85.91217804 -24
v -3.62155914 -86.89431 -24
v -3.61247253 -87.93615723 -24
v -3.24758911 -88.9120636 -24
v -2.57093811 -89.70432281 -24
v -1.66412354 -90.21737671 -24
v -0.63652039 -90.38933563 -24
v 0.38791656 -90.19946289 -24
v 1.2856369 -89.67066956 -24
v 1.94836426 -88.86672211 -24
v 2.29615021 -87.88459015 -24
v 2.2870636 -86.84274292 -24
v 1.92218018 -85.86683655 -24
v 1.24552917 -85.07457733 -24
v 0.3387146 -84.56152344 -24
v -0.68888092 -84.38956451 -30
v -1.7133255 -84.57943726 -30
v -2.61104584 -85.10823059 -30
v -3.27377319 -85.91217804 -30
v -3.62155914 -86.89431 -30
v -3.61247253 -87.93615723 -30
v -3.24758911 -88.9120636 -30
v -2.57093811 -89.70432281 -30
v -1.66412354 -90.21737671 -30
v -0.63652039 -90.38933563 -30
v 0.38791656 -90.19946289 -30
v 1.2856369 -89.67066956 -30
v 1.94836426 -88.86672211 -30
v 2.29615021 -87.88459015 -30
v 2.2870636 -86.84274292 -30
v 1.92218018 -85.86683655 -30
v 1.24552917 -85.07457733 -30
v 0.3387146 -84.56152344 -30
v -0.66270447 -87.38945007 -30
v 56.50486755 -62.68392181 0
v 55.87783813 -63.5160141 0
v 58.55085754 -64.87798309 0
v 55.57321167 -64.51237488 0
v 55.62774658 -65.55283356 0
v 56.03485107 -66.51190186 0
v 56.7454071 -67.27388763 0
v 57.67373657 -67.74689484 0
v 58.70787048 -67.87387085 0
v 59.72305298 -67.63949585 0
v 60.59684753 -67.07204437 0
v 61.22387695 -66.23995209 0
v 61.52850342 -65.24359131 0
v 61.47396851 -64.20313263 0
v 61.06686401 -63.24406433 0
v 60.35630798 -62.48207474 0
v 59.42797852 -62.00906754 0
v 58.3938446 -61.88209534 0
v 57.37866211 -62.11647034 0
v 56.50486755 -62.68392181 -6
v 55.87783813 -63.5160141 -6
v 55.57321167 -64.51237488 -6
v 55.62774658 -65.55283356 -6
v 56.03485107 -66.51190186 -6
v 56.7454071 -67.27388763 -6
v 57.67373657 -67.74689484 -6
v 58.70787048 -67.87387085 -6
v 59.72305298 -67.63949585 -6
v 60.59684753 -67.07204437 -6
v 61.22387695 -66.23995209 -6
v 61.52850342 -65.24359131 -6
v 61.47396851 -64.20313263 -6
v 61.06686401 -63.24406433 -6
v 60.35630798 -62.48207474 -6
v 59.42797852 -62.00906754 -6
v 58.3938446 -61.88209534 -6
v 57.37866211 -62.11647034 -6
v 56.50486755 -62.68392181 -12
v 55.87783813 -63.5160141 -12
v 55.57321167 -64.51237488 -12
v 55.62774658 -65.55283356 -12
v 56.03485107 -66.51190186 -12
v 56.7454071 -67.27388763 -12
v 57.67373657 -67.74689484 -12
v 58.70787048 -67.87387085 -12
v 59.72305298 -67.63949585 -12
v 60.59684753 -67.07204437 -12
v 61.22387695 -66.23995209 -12
v 61.52850342 -65.24359131 -12
v 61.47396851 -64.20313263 -12
v 61.06686401 -63.24406433 -12
v 60.35630798 -62.48207474 -12
v 59.42797852 -62.00906754 -12
v 58.3938446 -61.88209534 -12
v 57.37866211 -62.11647034 -12
v 56.50486755 -62.68392181 -18
v 55.87783813 -63.5160141 -18
v 55.57321167 -64.51237488 -18
v 55.62774658 -65.55283356 -18
v 56.03485107 -66.51190186 -18
v 56.7454071 -67.27388763 -18
v 57.67373657 -67.74689484 -18
v 58.70787048 -67.87387085 -18
v 59.72305298 -67.63949585 -18
v 60.59684753 -67.07204437 -18
v 61.22387695 -66.23995209 -18
v 61.52850342 -65.24359131 -18
v 61.47396851 -64.20313263 -18
v 61.06686401 -63.24406433 -18
v 60.35630798 -62.48207474 -18
v 59.42797852 -62.00906754 -18
v 58.3938446 -61.88209534 -18
v 57.37866211 -62.11647034 -18
v 56.50486755 -62.68392181 -24
v 55.87783813 -63.5160141 -24
v 55.57321167 -64.51237488 -24
v 55.62774658 -65.55283356 -24
v 56.03485107 -66.51190186 -24
v 56.7454071 -67.27388763 -24
v 57.67373657 -67.74689484 -24
v 58.70787048 -67.87387085 -24
v 59.72305298 -67.63949585 -24
v 60.59684753 -67.07204437 -24
v 61.22387695 -66.23995209 -24
v 61.52850342 -65.24359131 -24
v 61.47396851 -64.20313263 -24
v 61.06686401 -63.24406433 -24
v 60.35630798 -62.48207474 -24
v 59.42797852 -62.00906754 -24
v 58.3938446 -61.88209534 -24
v 57.37866211 -62.11647034 -24
v 56.50486755 -62.68392181 -30
v 55.87783813 -63.5160141 -30
v 55.57321167 -64.51237488 -30
v 55.62774658 -65.55283356 -30
v 56.03485107 -66.51190186 -30
v 56.7454071 -67.27388763 -30
v 57.67373657 -67.74689484 -30
v 58.70787048 -67.87387085 -30
v 59.72305298 -67.63949585 -30
v 60.59684753 -67.07204437 -30
v 61.22387695 -66.23995209 -30
v 61.52850342 -65.24359131 -30
v 61.47396851 -64.20313263 -30
v 61.06686401 -63.24406433 -30
v 60.35630798 -62.48207474 -30
v 59.42797852 -62.00906754 -30
v 58.3938446 -61.88209534 -30
v 57.37866211 -62.11647034 -30
v 58.55085754 -64.87798309 -30
v 84.38873291 0.78401303 0
v 84.59645081 -0.23695982 0
v 87.38771057 0.86254382 0
v 85.14083862 -1.12531638 0
v 85.95623779 -1.77390766 0
v 86.9442749 -2.10450363 0
v 87.98580933 -2.07723022 0
v 88.9552002 -1.69537663 0
v 89.73553467 -1.00499988 0
v 90.23268127 -0.08936977 0
v 90.38668823 0.94107512 0
v 90.17897034 1.96204793 0
v 89.63458252 2.85040438 0
v 88.81918335 3.49899554 0
v 87.83113098 3.82959151 0
v 86.78961182 3.80231786 0
v 85.82022095 3.42046404 0
v 85.03988647 2.73008704 0
v 84.54273987 1.81445694 0
v 84.38873291 0.78401303 -6
v 84.59645081 -0.23695982 -6
v 85.14083862 -1.12531638 -6
v 85.95623779 -1.77390766 -6
v 86.9442749 -2.10450363 -6
v 87.98580933 -2.07723022 -6
v 88.9552002 -1.69537663 -6
v 89.73553467 -1.00499988 -6
v 90.23268127 -0.08936977 -6
v 90.38668823 0.94107512 -6
v 90.17897034 1.96204793 -6
v 89.63458252 2.85040438 -6
v 88.81918335 3.49899554 -6
v 87.83113098 3.82959151 -6
v 86.78961182 3.80231786 -6
v 85.82022095 3.42046404 -6
v 85.03988647 2.73008704 -6
v 84.54273987 1.81445694 -6
v 84.38873291 0.78401303 -12
v 84.59645081 -0.23695982 -12
v 85.14083862 -1.12531638 -12
v 85.95623779 -1.77390766 -12
v 86.9442749 -2.10450363 -12
v 87.98580933 -2.07723022 -12
v 88.9552002 -1.69537663 -12
v 89.73553467 -1.00499988 -12
v 90.23268127 -0.08936977 -12
v 90.38668823 0.94107512 -12
v 90.17897034 1.96204793 -12
v 89.63458252 2.85040438 -12
v 88.81918335 3.49899554 -12
v 87.83113098 3.82959151 -12
v 86.78961182 3.80231786 -12
v 85.82022095 3.42046404 -12
v 85.03988647 2.73008704 -12
v 84.54273987 1.81445694 -12
v 84.38873291 0.78401303 -18
v 84.59645081 -0.23695982 -18
v 85.14083862 -1.12531638 -18
v 85.95623779 -1.77390766 -18
v 86.9442749 -2.10450363 -18
v 87.98580933 -2.07723022 -18
v 88.9552002 -1.69537663 -18
v 89.73553467 -1.00499988 -18
v 90.23268127 -0.08936977 -18
v 90.38668823 0.94107512 -18
v 90.17897034 1.96204793 -18
v 89.63458252 2.85040438 -18
v 88.81918335 3.49899554 -18
v 87.83113098 3.82959151 -18
v 86.78961182 3.80231786 -18
v 85.82022095 3.42046404 -18
v 85.03988647 2.73008704 -18
v 84.54273987 1.81445694 -18
v 84.38873291 0.78401303 -24
v 84.59645081 -0.23695982 -24
v 85.14083862 -1.12531638 -24
v 85.95623779 -1.77390766 -24
v 86.9442749 -2.10450363 -24
v 87.98580933 -2.07723022 -24
v 88.9552002 -1.69537663 -24
v 89.73553467 -1.00499988 -24
v 90.23268127 -0.08936977 -24
v 90.38668823 0.94107512 -24
v 90.17897034 1.96204793 -24
v 89.63458252 2.85040438 -24
v 88.81918335 3.49899554 -24
v 87.83113098 3.82959151 -24
v 86.78961182 3.80231786 -24
v 85.82022095 3.42046404 -24
v 85.03988647 2.73008704 -24
v 84.54273987 1.81445694 -24
v 84.38873291 0.78401303 -30
v 84.59645081 -0.23695982 -30
v 85.14083862 -1.12531638 -30
v 85.95623779 -1.77390766 -30
v 86.9442749 -2.10450363 -30
v 87.98580933 -2.07723022 -30
v 88.9552002 -1.69537663 -30
v 89.73553467 -1.00499988 -30
v 90.23268127 -0.08936977 -30
v 90.38668823 0.94107512 -30
v 90.17897034 1.96204793 -30
v 89.63458252 2.85040438 -30
v 88.81918335 3.49899554 -30
v 87.83113098 3.82959151 -30
v 86.78961182 3.80231786 -30
v 85.82022095 3.42046404 -30
v 85.03988647 2.73008704 -30
v 84.54273987 1.81445694 -30
v 87.38771057 0.86254382 -30
v 63.66052246 55.40226364 0
v 64.48153687 54.76081467 0
v 65.88995361 57.40965652 0
v 65.47242737 54.43885422 0
v 66.51368713 54.4752121 0
v 67.47970581 54.86551285 0
v 68.25398254 55.56267166 0
v 68.74311829 56.48260498 0
v 68.88812256 57.51435471 0
v 68.67150879 58.53347778 0
v 68.11938477 59.41704941 0
v 67.29837036 60.05849838 0
v 66.30747986 60.38046265 0
v 65.26622009 60.34410095 0
v 64.30020142 59.9538002 0
v 63.52592468 59.25664139 0
v 63.03678894 58.33670807 0
v 62.89178467 57.30495834 0
v 63.10839844 56.28583527 0
v 63.66052246 55.40226364 -6
v 64.48153687 54.76081467 -6
v 65.47242737 54.43885422 -6
v 66.51368713 54.4752121 -6
v 67.47970581 54.86551285 -6
v 68.25398254 55.56267166 -6
v 68.74311829 56.48260498 -6
v 68.88812256 57.51435471 -6
v 68.67150879 58.53347778 -6
v 68.11938477 59.41704941 -6
v 67.29837036 60.05849838 -6
v 66.30747986 60.38046265 -6
v 65.26622009 60.34410095 -6
v 64.30020142 59.9538002 -6
v 63.52592468 59.25664139 -6
v 63.03678894 58.33670807 -6
v 62.89178467 57.30495834 -6
v 63.10839844 56.28583527 -6
v 63.66052246 55.40226364 -12
v 64.48153687 54.76081467 -12
v 65.47242737 54.43885422 -12
v 66.51368713 54.4752121 -12
v 67.47970581 54.86551285 -12
v 68.25398254 55.56267166 -12
v 68.74311829 56.48260498 -12
v 68.88812256 57.51435471 -12
v 68.67150879 58.53347778 -12
v 68.11938477 59.41704941 -12
v 67.29837036 60.05849838 -12
v 66.30747986 60.38046265 -12
v 65.26622009 60.34410095 -12
v 64.30020142 59.9538002 -12
v 63.52592468 59.25664139 -12
v 63.03678894 58.33670807 -12
v 62.89178467 57.30495834 -12
v 63.10839844 56.28583527 -12
v 63.66052246 55.40226364 -18
v 64.48153687 54.76081467 -18
v 65.47242737 54.43885422 -18
v 66.51368713 54.4752121 -18
v 67.47970581 54.86551285 -18
v 68.25398254 55.56267166 -18
v 68.74311829 56.48260498 -18
v 68.88812256 57.51435471 -18
v 68.67150879 58.53347778 -18
v 68.11938477 59.41704941 -18
v 67.29837036 60.05849838 -18
v 66.30747986 60.38046265 -18
v 65.26622009 60.34410095 -18
v 64.30020142 59.9538002 -18
v 63.52592468 59.25664139 -18
v 63.03678894 58.33670807 -18
v 62.89178467 57.30495834 -18
v 63.10839844 56.28583527 -18
v 63.66052246 55.40226364 -24
v 64.48153687 54.76081467 -24
v 65.47242737 54.43885422 -24
v 66.51368713 54.4752121 -24
v 67.47970581 54.86551285 -24
v 68.25398254 55.56267166 -24
v 68.74311829 56.48260498 -24
v 68.88812256 57.51435471 -24
v 68.67150879 58.53347778 -24
v 68.11938477 59.41704941 -24
v 67.29837036 60.05849838 -24
v 66.30747986 60.38046265 -24
v 65.26622009 60.34410095 -24
v 64.30020142 59.9538002 -24
v 63.52592468 59.25664139 -24
v 63.03678894 58.33670807 -24
v 62.89178467 57.30495834 -24
v 63.10839844 56.28583527 -24
v 63.66052246 55.40226364 -30
v 64.48153687 54.76081467 -30
v 65.47242737 54.43885422 -30
v 66.51368713 54.4752121 -30
v 67.47970581 54.86551285 -30
v 68.25398254 55.56267166 -30
v 68.74311829 56.48260498 -30
v 68.88812256 57.51435471 -30
v 68.67150879 58.53347778 -30
v 68.11938477 59.41704941 -30
v 67.29837036 60.05849838 -30
v 66.30747986 60.38046265 -30
v 65.26622009 60.34410095 -30
v 64.30020142 59.9538002 -30
v 63.52592468 59.25664139 -30
v 63.03678894 58.33670807 -30
v 62.89178467 57.30495834 -30
v 63.10839844 56.28583527 -30
v 65.88995361 57.40965652 -30
v -0.04755402 84.3923645 0
v 0.97518921 84.59116364 0
v -0.09991455 87.39190674 0
v 1.86826324 85.1277771 0
v 2.52394104 85.93747711 0
v 2.86315155 86.92259979 0
v 2.8449707 87.96433258 0
v 2.47158813 88.93701935 0
v 1.78804779 89.7233429 0
v 0.87679291 90.22846222 0
v -0.15227509 90.39144897 0
v -1.17501831 90.19264984 0
v -2.06809235 89.65603638 0
v -2.72377777 88.84633636 0
v -3.06298065 87.86120605 0
v -3.0447998 86.8194809 0
v -2.67141724 85.84679413 0
v -1.98787689 85.06047058 0
v -1.07662201 84.55535126 0
v -0.04755402 84.3923645 -6
v 0.97518921 84.59116364 -6
v 1.86826324 85.1277771 -6
v 2.52394104 85.93747711 -6
v 2.86315155 86.92259979 -6
v 2.8449707 87.96433258 -6
v 2.47158813 88.93701935 -6
v 1.78804779 89.7233429 -6
v 0.87679291 90.22846222 -6
v -0.15227509 90.39144897 -6
v -1.17501831 90.19264984 -6
v -2.06809235 89.65603638 -6
v -2.72377777 88.84633636 -6
v -3.06298065 87.86120605 -6
v -3.0447998 86.8194809 -6
v -2.67141724 85.84679413 -6
v -1.98787689 85.06047058 -6
v -1.07662201 84.55535126 -6
v -0.04755402 84.3923645 -12
v 0.97518921 84.59116364 -12
v 1.86826324 85.1277771 -12
v 2.52394104 85.93747711 -12
v 2.86315155 86.92259979 -12
v 2.8449707 87.96433258 -12
v 2.47158813 88.93701935 -12
v 1.78804779 89.7233429 -12
v 0.87679291 90.22846222 -12
v -0.15227509 90.39144897 -12
v -1.17501831 90.19264984 -12
v -2.06809235 89.65603638 -12
v -2.72377777 88.84633636 -12
v -3.06298065 87.86120605 -12
v -3.0447998 86.8194809 -12
v -2.67141724 85.84679413 -12
v -1.98787689 85.06047058 -12
v -1.07662201 84.55535126 -12
v -0.04755402 84.3923645 -18
v 0.97518921 84.59116364 -18
v 1.86826324 85.1277771 -18
v 2.52394104 85.93747711 -18
v 2.86315155 86.92259979 -18
v 2.8449707 87.96433258 -18
v 2.47158813 88.93701935 -18
v 1.78804779 89.7233429 -18
v 0.87679291 90.22846222 -18
v -0.15227509 90.39144897 -18
v -1.17501831 90.19264984 -18
v -2.06809235 89.65603638 -18
v -2.72377777 88.84633636 -18
v -3.06298065 87.86120605 -18
v -3.0447998 86.8194809 -18
v -2.67141724 85.84679413 -18
v -1.98787689 85.06047058 -18
v -1.07662201 84.55535126 -18
v -0.04755402 84.3923645 -24
v 0.97518921 84.59116364 -24
v 1.86826324 85.1277771 -24
v 2.52394104 85.93747711 -24
v 2.86315155 86.92259979 -24
v 2.8449707 87.96433258 -24
v 2.47158813 88.93701935 -24
v 1.78804779 89.7233429 -24
v 0.87679291 90.22846222 -24
v -0.15227509 90.39144897 -24
v -1.17501831 90.19264984 -24
v -2.06809235 89.65603638 -24
v -2.72377777 88.84633636 -24
v -3.06298065 87.86120605 -24
v -3.0447998 86.8194809 -24
v -2.67141724 85.84679413 -24
v -1.98787689 85.06047058 -24
v -1.07662201 84.55535126 -24
v -0.04755402 84.3923645 -30
v 0.97518921 84.59116364 -30
v 1.86826324 85.1277771 -30
v 2.52394104 85.93747711 -30
v 2.86315155 86.92259979 -30
v 2.8449707 87.96433258 -30
v 2.47158813 88.93701935 -30
v 1.78804779 89.7233429 -30
v 0.87679291 90.22846222 -30
v -0.15227509 90.39144897 -30
v -1.17501831 90.19264984 -30
v -2.06809235 89.65603638 -30
v -2.72377777 88.84633636 -30
v -3.06298065 87.86120605 -30
v -3.0447998 86.8194809 -30
v -2.67141724 85.84679413 -30
v -1.98787689 85.06047058 -30
v -1.07662201 84.55535126 -30
v -0.09991455 87.39190674 -30
v -59.70804214 59.6407814 0
v -59.12542534 60.50454712 0
v -61.86606216 61.72475815 0
v -58.87336922 61.51548767 0
v -58.98227692 62.55167007 0
v -59.43901062 63.4881134 0
v -60.18848419 64.2118721 0
v -61.14029694 64.63564682 0
v -62.17964745 64.70832443 0
v -63.18117523 64.42113876 0
v -64.02408218 63.80873108 0
v -64.60669899 62.94496918 0
v -64.85875511 61.93402863 0
v -64.74984741 60.89784622 0
v -64.29311371 59.96140289 0
v -63.54364014 59.2376442 0
v -62.59182739 58.81386948 0
v -61.55247688 58.74119186 0
v -60.55094719 59.02837753 0
v -59.70804214 59.6407814 -6
v -59.12542534 60.50454712 -6
v -58.87336922 61.51548767 -6
v -58.98227692 62.55167007 -6
v -59.43901062 63.4881134 -6
v -60.18848419 64.2118721 -6
v -61.14029694 64.63564682 -6
v -62.17964745 64.70832443 -6
v -63.18117523 64.42113876 -6
v -64.02408218 63.80873108 -6
v -64.60669899 62.94496918 -6
v -64.85875511 61.93402863 -6
v -64.74984741 60.89784622 -6
v -64.29311371 59.96140289 -6
v -63.54364014 59.2376442 -6
v -62.59182739 58.81386948 -6
v -61.55247688 58.74119186 -6
v -60.55094719 59.02837753 -6
v -59.70804214 59.6407814 -12
v -59.12542534 60.50454712 -12
v -58.87336922 61.51548767 -12
v -58.98227692 62.55167007 -12
v -59.43901062 63.4881134 -12
v -60.18848419 64.2118721 -12
v -61.14029694 64.63564682 -12
v -62.17964745 64.70832443 -12
v -63.18117523 64.42113876 -12
v -64.02408218 63.80873108 -12
v -64.60669899 62.94496918 -12
v -64.85875511 61.93402863 -12
v -64.74984741 60.89784622 -12
v -64.29311371 59.96140289 -12
v -63.54364014 59.2376442 -12
v -62.59182739 58.81386948 -12
v -61.55247688 58.74119186 -12
v -60.55094719 59.02837753 -12
v -59.70804214 59.6407814 -18
v -59.12542534 60.50454712 -18
v -58.87336922 61.51548767 -18
v -58.98227692 62.55167007 -18
v -59.43901062 63.4881134 -18
v -60.18848419 64.2118721 -18
v -61.14029694 64.63564682 -18
v -62.17964745 64.70832443 -18
v -63.18117523 64.42113876 -18
v -64.02408218 63.80873108 -18
v -64.60669899 62.94496918 -18
v -64.85875511 61.93402863 -18
v -64.74984741 60.89784622 -18
v -64.29311371 59.96140289 -18
v -63.54364014 59.2376442 -18
v -62.59182739 58.81386948 -18
v -61.55247688 58.74119186 -18
v -60.55094719 59.02837753 -18
v -59.70804214 59.6407814 -24
v -59.12542534 60.50454712 -24
v -58.87336922 61.51548767 -24
v -58.98227692 62.55167007 -24
v -59.43901062 63.4881134 -24
v -60.18848419 64.2118721 -24
v -61.14029694 64.63564682 -24
v -62.17964745 64.70832443 -24
v -63.18117523 64.42113876 -24
v -64.02408218 63.80873108 -24
v -64.60669899 62.94496918 -24
v -64.85875511 61.93402863 -24
v -64.74984741 60.89784622 -24
v -64.29311371 59.96140289 -24
v -63.54364014 59.2376442 -24
v -62.59182739 58.81386948 -24
v -61.55247688 58.74119186 -24
v -60.55094719 59.02837753 -24
v -59.70804214 59.6407814 -30
v -59.12542534 60.50454712 -30
v -58.87336922 61.51548767 -30
v -58.98227692 62.55167007 -30
v -59.43901062 63.4881134 -30
v -60.18848419 64.2118721 -30
v -61.14029694 64.63564682 -30
v -62.17964745 64.70832443 -30
v -63.18117523 64.42113876 -30
v -64.02408218 63.80873108 -30
v -64.60669899 62.94496918 -30
v -64.85875511 61.93402863 -30
v -64.74984741 60.89784622 -30
v -64.29311371 59.96140289 -30
v -63.54364014 59.2376442 -30
v -62.59182739 58.81386948 -30
v -61.55247688 58.74119186 -30
v -60.55094719 59.02837753 -30
v -61.86606216 61.72475815 -30
vn 0 0 1
vn 1 0 -0
vn 0.93969 0.34202 -0
vn 0.99828 0.05867 -0
vn 0.91801 0.39657 -0
vn 0.76604 0.64279 -0
vn 0.72701 0.68663 -0
vn 0.5 0.86603 -0
vn 0.44832 0.89387 -0
vn 0.17365 0.98481 -0
vn 0.11557 0.9933 -0
vn -0.17365 0.98481 -0
vn -0.23113 0.97292 -0
vn -0.5 0.86603 -0
vn -0.54995 0.8352 -0
vn -0.76604 0.64279 -0
vn -0.80244 0.59673 -0
vn -0.93969 0.34202 -0
vn -0.95814 0.28629 -0
vn -1 -0 -0
vn -0.99828 -0.05867 -0
vn -0.93969 -0.34202 -0
vn -0.91801 -0.39657 -0
vn -0.76604 -0.64279 -0
vn -0.72701 -0.68663 -0
vn -0.5 -0.86603 -0
vn -0.44832 -0.89387 -0
vn -0.17365 -0.98481 -0
vn -0.11557 -0.9933 -0
vn 0.17365 -0.98481 -0
vn 0.23113 -0.97292 -0
vn 0.5 -0.86603 -0
vn 0.54995 -0.8352 -0
vn 0.76604 -0.64279 -0
vn 0.80244 -0.59673 -0
vn 0.93969 -0.34202 -0
vn 0.95814 -0.28629 -0
vn 0.99828 -0.05867 -0
vn 0.95814 0.2863 -0
vn 0.80244 0.59673 -0
vn 0.54995 0.8352 -0
vn 0.23113 0.97292 -0
vn -0.11557 0.9933 -0
vn -0.44833 0.89387 -0
vn -0.72701 0.68663 -0
vn -0.91801 0.39657 -0
vn -0.99828 0.05867 -0
vn -0.95814 -0.2863 -0
vn -0.80244 -0.59673 -0
vn -0.54995 -0.8352 -0
vn -0.23113 -0.97292 -0
vn 0.11557 -0.9933 -0
vn 0.44833 -0.89387 -0
vn 0.72701 -0.68663 -0
vn 0.91801 -0.39657 -0
vn 0 0 -1
vn 0.73135 0.682 -0
vn 0.45399 0.89101 -0
vn 0.69008 0.72374 -0
vn 0.40093 0.91611 -0
vn 0.12187 0.99255 -0
vn 0.06342 0.99799 -0
vn -0.22495 0.97437 -0
vn -0.28173 0.95949 -0
vn -0.54464 0.83867 -0
vn -0.59291 0.80527 -0
vn -0.79864 0.60182 -0
vn -0.83257 0.55392 -0
vn -0.95631 0.29237 -0
vn -0.97181 0.23576 -0
vn -0.99863 -0.05234 -0
vn -0.99384 -0.11084 -0
vn -0.9205 -0.39073 -0
vn -0.89599 -0.44407 -0
vn -0.73135 -0.682 -0
vn -0.69008 -0.72374 -0
vn -0.45399 -0.89101 -0
vn -0.40093 -0.91611 -0
vn -0.12187 -0.99255 -0
vn -0.06342 -0.99799 -0
vn 0.22495 -0.97437 -0
vn 0.28174 -0.95949 -0
vn 0.54464 -0.83867 -0
vn 0.59291 -0.80527 -0
vn 0.79864 -0.60181 -0
vn 0.83257 -0.55392 -0
vn 0.9563 -0.29237 -0
vn 0.97181 -0.23576 -0
vn 0.99863 0.05234 -0
vn 0.99384 0.11084 -0
vn 0.9205 0.39073 -0
vn 0.89599 0.44407 -0
vn 0.77011 0.63791 -0
vn 0.50549 0.86283 -0
vn 0.1799 0.98369 -0
vn -0.16739 0.98589 -0
vn -0.49449 0.86918 -0
vn -0.76195 0.64764 -0
vn -0.9375 0.34798 -0
vn -0.99998 0.00635 -0
vn -0.94184 -0.33605 -0
vn -0.77011 -0.63791 -0
vn -0.50549 -0.86283 -0
vn -0.1799 -0.98369 -0
vn 0.16739 -0.98589 -0
vn 0.49449 -0.86918 -0
vn 0.76195 -0.64764 -0
vn 0.9375 -0.34798 -0
vn 0.99998 -0.00635 -0
vn 0.94184 0.33605 -0
vn -0.00873 0.99996 -0
vn -0.35021 0.93667 -0
vn -0.06739 0.99773 -0
vn -0.40456 0.91451 -0
vn -0.64945 0.76041 -0
vn -0.69294 0.72099 -0
vn -0.87036 0.49242 -0
vn -0.89775 0.44051 -0
vn -0.98629 0.16505 -0
vn -0.99427 0.1069 -0
vn -0.98325 -0.18224 -0
vn -0.97087 -0.23962 -0
vn -0.86163 -0.50754 -0
vn -0.83036 -0.55722 -0
vn -0.63608 -0.77162 -0
vn -0.58971 -0.80762 -0
vn -0.33381 -0.94264 -0
vn -0.27792 -0.9606 -0
vn 0.00873 -0.99996 -0
vn 0.06739 -0.99773 -0
vn 0.35021 -0.93667 -0
vn 0.40456 -0.91451 -0
vn 0.64945 -0.76041 -0
vn 0.69294 -0.72099 -0
vn 0.87036 -0.49242 -0
vn 0.89775 -0.44051 -0
vn 0.98629 -0.16505 -0
vn 0.99427 -0.1069 -0
vn 0.98325 0.18224 -0
vn 0.97087 0.23962 -0
vn 0.86163 0.50754 -0
vn 0.83036 0.55722 -0
vn 0.63608 0.77162 -0
vn 0.58971 0.80762 -0
vn 0.33381 0.94264 -0
vn 0.27792 0.9606 -0
vn 0.04996 0.99875 -0
vn -0.29465 0.95561 -0
vn -0.60371 0.7972 -0
vn -0.83996 0.54264 -0
vn -0.9749 0.22263 -0
vn -0.99225 -0.12423 -0
vn -0.88992 -0.45611 -0
vn -0.68026 -0.73297 -0
vn -0.38854 -0.92143 -0
vn -0.04996 -0.99875 -0
vn 0.29465 -0.95561 -0
vn 0.60371 -0.7972 -0
vn 0.83996 -0.54264 -0
vn 0.9749 -0.22263 -0
vn 0.99225 0.12423 -0
vn 0.88992 0.45611 -0
vn 0.68026 0.73297 -0
vn 0.38854 0.92143 -0
vn -0.682 0.73135 -0
vn -0.891 0.45399 -0
vn -0.72373 0.69008 -0
vn -0.91611 0.40093 -0
vn -0.99255 0.12187 -0
vn -0.99799 0.06342 -0
vn -0.97437 -0.22496 -0
vn -0.95949 -0.28174 -0
vn -0.83867 -0.54464 -0
vn -0.80527 -0.59291 -0
vn -0.60182 -0.79863 -0
vn -0.55392 -0.83257 -0
vn -0.29237 -0.9563 -0
vn -0.23576 -0.97181 -0
vn 0.05234 -0.99863 -0
vn 0.11084 -0.99384 -0
vn 0.39073 -0.9205 -0
vn 0.44407 -0.89599 -0
vn 0.682 -0.73135 -0
vn 0.72373 -0.69008 -0
vn 0.891 -0.45399 -0
vn 0.91611 -0.40093 -0
vn 0.99255 -0.12187 -0
vn 0.99799 -0.06342 -0
vn 0.97437 0.22496 -0
vn 0.95949 0.28174 -0
vn 0.83867 0.54464 -0
vn 0.80527 0.59291 -0
vn 0.60182 0.79863 -0
vn 0.55392 0.83257 -0
vn 0.29237 0.95631 -0
vn 0.23576 0.97181 -0
vn -0.05234 0.99863 -0
vn -0.11084 0.99384 -0
vn -0.39073 0.9205 -0
vn -0.44407 0.89599 -0
vn -0.63791 0.77011 -0
vn -0.86283 0.50549 -0
vn -0.98368 0.1799 -0
vn -0.98589 -0.1674 -0
vn -0.86918 -0.49449 -0
vn -0.64764 -0.76195 -0
vn -0.34798 -0.9375 -0
vn -0.00635 -0.99998 -0
vn 0.33605 -0.94184 -0
vn 0.63791 -0.77011 -0
vn 0.86283 -0.50549 -0
vn 0.98368 -0.1799 -0
vn 0.98589 0.1674 -0
vn 0.86918 0.49449 -0
vn 0.64764 0.76195 -0
vn 0.34798 0.9375 -0
vn 0.00635 0.99998 -0
vn -0.33605 0.94184 -0
vn -0.99966 -0.02617 -0
vn -0.93042 -0.3665 -0
vn -0.9964 -0.08478 -0
vn -0.90731 -0.42046 -0
vn -0.74895 -0.66262 -0
vn -0.70878 -0.70543 -0
vn -0.47716 -0.87882 -0
vn -0.42477 -0.9053 -0
vn -0.14781 -0.98902 -0
vn -0.08953 -0.99598 -0
vn 0.19937 -0.97992 -0
vn 0.25652 -0.96654 -0
vn 0.5225 -0.85264 -0
vn 0.57162 -0.82052 -0
vn 0.78261 -0.62252 -0
vn 0.81778 -0.57552 -0
vn 0.94832 -0.31731 -0
vn 0.96531 -0.26112 -0
vn 0.99966 0.02617 -0
vn 0.9964 0.08478 -0
vn 0.93042 0.3665 -0
vn 0.90731 0.42046 -0
vn 0.74895 0.66262 -0
vn 0.70878 0.70543 -0
vn 0.47716 0.87882 -0
vn 0.42477 0.9053 -0
vn 0.14781 0.98902 -0
vn 0.08952 0.99598 -0
vn -0.19937 0.97992 -0
vn -0.25652 0.96654 -0
vn -0.5225 0.85264 -0
vn -0.57162 0.82052 -0
vn -0.78261 0.62252 -0
vn -0.81778 0.57552 -0
vn -0.94832 0.31731 -0
vn -0.96531 0.26112 -0
vn -0.99947 0.03253 -0
vn -0.95032 -0.31128 -0
vn -0.78654 -0.61754 -0
vn -0.5279 -0.84931 -0
vn -0.20559 -0.97864 -0
vn 0.14153 -0.98993 -0
vn 0.47157 -0.88183 -0
vn 0.74473 -0.66736 -0
vn 0.92807 -0.3724 -0
vn 0.99947 -0.03253 -0
vn 0.95032 0.31128 -0
vn 0.78654 0.61754 -0
vn 0.5279 0.84931 -0
vn 0.20558 0.97864 -0
vn -0.14153 0.98993 -0
vn -0.47157 0.88183 -0
vn -0.74473 0.66736 -0
vn -0.92807 0.3724 -0
vn -0.74314 -0.66913 -0
vn -0.46947 -0.88295 -0
vn -0.7026 -0.71158 -0
vn -0.41686 -0.90897 -0
vn -0.13918 -0.99027 -0
vn -0.08083 -0.99673 -0
vn 0.20791 -0.97815 -0
vn 0.26495 -0.96426 -0
vn 0.52992 -0.84805 -0
vn 0.57876 -0.81549 -0
vn 0.78801 -0.61566 -0
vn 0.82278 -0.56836 -0
vn 0.95106 -0.30902 -0
vn 0.96755 -0.25268 -0
vn 0.99939 0.0349 -0
vn 0.99562 0.09347 -0
vn 0.92718 0.37461 -0
vn 0.90361 0.42836 -0
vn 0.74314 0.66913 -0
vn 0.7026 0.71158 -0
vn 0.46947 0.88295 -0
vn 0.41686 0.90897 -0
vn 0.13918 0.99027 -0
vn 0.08083 0.99673 -0
vn -0.20791 0.97815 -0
vn -0.26495 0.96426 -0
vn -0.52992 0.84805 -0
vn -0.57876 0.81549 -0
vn -0.78801 0.61566 -0
vn -0.82278 0.56836 -0
vn -0.95106 0.30902 -0
vn -0.96755 0.25268 -0
vn -0.99939 -0.0349 -0
vn -0.99562 -0.09347 -0
vn -0.92718 -0.37461 -0
vn -0.90361 -0.42836 -0
vn -0.78112 -0.62438 -0
vn -0.52047 -0.85388 -0
vn -0.19704 -0.9804 -0
vn 0.15016 -0.98866 -0
vn 0.47925 -0.87768 -0
vn 0.75053 -0.66084 -0
vn 0.93129 -0.36429 -0
vn 0.99972 -0.0238 -0
vn 0.94757 0.31956 -0
vn 0.78112 0.62438 -0
vn 0.52047 0.85388 -0
vn 0.19704 0.9804 -0
vn -0.15016 0.98866 -0
vn -0.47925 0.87768 -0
vn -0.75053 0.66084 -0
vn -0.93129 0.36429 -0
vn -0.99972 0.0238 -0
vn -0.94757 -0.31956 -0
vn 0.01745 -0.99985 -0
vn 0.35837 -0.93358 -0
vn 0.07609 -0.9971 -0
vn 0.41253 -0.91095 -0
vn 0.65606 -0.75471 -0
vn 0.69921 -0.71491 -0
vn 0.87462 -0.48481 -0
vn 0.90156 -0.43266 -0
vn 0.98769 -0.15644 -0
vn 0.99517 -0.09822 -0
vn 0.98163 0.19081 -0
vn 0.96874 0.24808 -0
vn 0.85717 0.51504 -0
vn 0.82547 0.56445 -0
vn 0.62932 0.77715 -0
vn 0.58264 0.81273 -0
vn 0.32557 0.94552 -0
vn 0.26953 0.96299 -0
vn -0.01745 0.99985 -0
vn -0.07609 0.9971 -0
vn -0.35837 0.93358 -0
vn -0.41253 0.91095 -0
vn -0.65606 0.75471 -0
vn -0.69921 0.71492 -0
vn -0.87462 0.48481 -0
vn -0.90156 0.43265 -0
vn -0.98769 0.15643 -0
vn -0.99517 0.09821 -0
vn -0.98163 -0.19081 -0
vn -0.96874 -0.24808 -0
vn -0.85717 -0.51504 -0
vn -0.82547 -0.56445 -0
vn -0.62932 -0.77715 -0
vn -0.58264 -0.81273 -0
vn -0.32557 -0.94552 -0
vn -0.26953 -0.96299 -0
vn -0.04124 -0.99915 -0
vn 0.30297 -0.953 -0
vn 0.61065 -0.7919 -0
vn 0.84467 -0.53529 -0
vn 0.97681 -0.21412 -0
vn 0.99113 0.13288 -0
vn 0.88591 0.46386 -0
vn 0.67384 0.73888 -0
vn 0.38049 0.92479 -0
vn 0.04124 0.99915 -0
vn -0.30297 0.953 -0
vn -0.61065 0.7919 -0
vn -0.84467 0.53529 -0
vn -0.97681 0.21411 -0
vn -0.99113 -0.13288 -0
vn -0.88591 -0.46386 -0
vn -0.67384 -0.73888 -0
vn -0.38049 -0.92479 -0
vn 0.71934 -0.69466 -0
vn 0.91355 -0.40674 -0
vn 0.75886 -0.65126 -0
vn 0.93584 -0.35243 -0
vn 0.99756 -0.06976 -0
vn 0.99994 -0.0111 -0
vn 0.96126 0.27564 -0
vn 0.94343 0.33156 -0
vn 0.80902 0.58779 -0
vn 0.77314 0.63424 -0
vn 0.55919 0.82904 -0
vn 0.50959 0.86042 -0
vn 0.24192 0.9703 -0
vn 0.18457 0.98282 -0
vn -0.10453 0.99452 -0
vn -0.1627 0.98668 -0
vn -0.43837 0.89879 -0
vn -0.49035 0.87152 -0
vn -0.71934 0.69466 -0
vn -0.75886 0.65126 -0
vn -0.91355 0.40674 -0
vn -0.93584 0.35243 -0
vn -0.99756 0.06976 -0
vn -0.99994 0.0111 -0
vn -0.96126 -0.27564 -0
vn -0.94343 -0.33156 -0
vn -0.80902 -0.58779 -0
vn -0.77314 -0.63424 -0
vn -0.55919 -0.82904 -0
vn -0.50959 -0.86042 -0
vn -0.24192 -0.9703 -0
vn -0.18457 -0.98282 -0
vn 0.10453 -0.99452 -0
vn 0.1627 -0.98668 -0
vn 0.43837 -0.89879 -0
vn 0.49035 -0.87152 -0
vn 0.67734 -0.73567 -0
vn 0.88811 -0.45964 -0
vn 0.99175 -0.12817 -0
vn 0.97578 0.21876 -0
vn 0.84211 0.5393 -0
vn 0.60687 0.7948 -0
vn 0.29844 0.95443 -0
vn -0.046 0.99894 -0
vn -0.38488 0.92297 -0
vn -0.67734 0.73567 -0
vn -0.88811 0.45964 -0
vn -0.99175 0.12817 -0
vn -0.97578 -0.21876 -0
vn -0.84211 -0.5393 -0
vn -0.60687 -0.7948 -0
vn -0.29844 -0.95443 -0
vn 0.046 -0.99894 -0
vn 0.38488 -0.92297 -0
usemtl mat0
f 1//1 2//1 3//1
f 2//1 4//1 3//1
f 4//1 5//1 3//1
f 5//1 6//1 3//1
f 6//1 7//1 3//1
f 7//1 8//1 3//1
f 8//1 9//1 3//1
f 9//1 10//1 3//1
f 10//1 11//1 3//1
f 11//1 12//1 3//1
f 12//1 13//1 3//1
f 13//1 14//1 3//1
f 14//1 15//1 3//1
f 15//1 16//1 3//1
f 16//1 17//1 3//1
f 17//1 18//1 3//1
f 18//1 19//1 3//1
f 19//1 1//1 3//1
f 20//2 21//3 1//4
f 21//3 2//5 1//4
f 21//3 22//6 2//5
f 22//6 4//7 2//5
f 22//6 23//8 4//7
f 23//8 5//9 4//7
f 23//8 24//10 5//9
f 24//10 6//11 5//9
f 24//10 25//12 6//11
f 25//12 7//13 6//11
f 25//12 26//14 7//13
f 26//14 8//15 7//13
f 26//14 27//16 8//15
f 27//16 9//17 8//15
f 27//16 28//18 9//17
f 28//18 10//19 9//17
f 28//18 29//20 10//19
f 29//20 11//21 10//19
f 29//20 30//22 11//21
f 30//22 12//23 11//21
f 30//22 31//24 12//23
f 31//24 13//25 12//23
f 31//24 32//26 13//25
f 32//26 14//27 13//25
f 32//26 33//28 14//27
f 33//28 15//29 14//27
f 33//28 34//30 15//29
f 34//30 16//31 15//29
f 34//30 35//32 16//31
f 35//32 17//33 16//31
f 35//32 36//34 17//33
f 36//34 18//35 17//33
f 36//34 37//36 18//35
f 37//36 19//37 18//35
f 37//36 20//2 19//37
f 20//2 1//4 19//37
f 38//2 39//3 20//2
f 39//3 21//3 20//2
f 39//3 40//6 21//3
f 40//6 22//6 21//3
f 40//6 41//8 22//6
f 41//8 23//8 22//6
f 41//8 42//10 23//8
f 42//10 24//10 23//8
f 42//10 43//12 24//10
f 43//12 25//12 24//10
f 43//12 44//14 25//12
f 44//14 26//14 25//12
f 44//14 45//16 26//14
f 45//16 27//16 26//14
f 45//16 46//18 27//16
f 46//18 28//18 27//16
f 46//18 47//20 28//18
f 47//20 29//20 28//18
f 47//20 48//22 29//20
f 48//22 30//22 29//20
f 48//22 49//24 30//22
f 49//24 31//24 30//22
f 49//24 50//26 31//24
f 50//26 32//26 31//24
f 50//26 51//28 32//26
f 51//28 33//28 32//26
f 51//28 52//30 33//28
f 52//30 34//30 33//28
f 52//30 53//32 34//30
f 53//32 35//32 34//30
f 53//32 54//34 35//32
f 54//34 36//34 35//32
f 54//34 55//36 36//34
f 55//36 37//36 36//34
f 55//36 38//2 37//36
f 38//2 20//2 37//36
f 56//2 57//3 38//2
f 57//3 39//3 38//2
f 57//3 58//6 39//3
f 58//6 40//6 39//3
f 58//6 59//8 40//6
f 59//8 41//8 40//6
f 59//8 60//10 41//8
f 60//10 42//10 41//8
f 60//10 61//12 42//10
f 61//12 43//12 42//10
f 61//12 62//14 43//12
f 62//14 44//14 43//12
f 62//14 63//16 44//14
f 63//16 45//16 44//14
f 63//16 64//18 45//16
f 64//18 46//18 45//16
f 64//18 65//20 46//18
f 65//20 47//20 46//18
f 65//20 66//22 47//20
f 66//22 48//22 47//20
f 66//22 67//24 48//22
f 67//24 49//24 48//22
f 67//24 68//26 49//24
f 68//26 50//26 49//24
f 68//26 69//28 50//26
f 69//28 51//28 50//26
f 69//28 70//30 51//28
f 70//30 52//30 51//28
f 70//30 71//32 52//30
f 71//32 53//32 52//30
f 71//32 72//34 53//32
f 72//34 54//34 53//32
f 72//34 73//36 54//34
f 73//36 55//36 54//34
f 73//36 56//2 55//36
f 56//2 38//2 55//36
f 74//2 75//3 56//2
f 75//3 57//3 56//2
f 75//3 76//6 57//3
f 76//6 58//6 57//3
f 76//6 77//8 58//6
f 77//8 59//8 58//6
f 77//8 78//10 59//8
f 78//10 60//10 59//8
f 78//10 79//12 60//10
f 79//12 61//12 60//10
f 79//12 80//14 61//12
f 80//14 62//14 61//12
f 80//14 81//16 62//14
f 81//16 63//16 62//14
f 81//16 82//18 63//16
f 82//18 64//18 63//16
f 82//18 83//20 64//18
f 83//20 65//20 64//18
f 83//20 84//22 65//20
f 84//22 66//22 65//20
f 84//22 85//24 66//22
f 85//24 67//24 66//22
f 85//24 86//26 67//24
f 86//26 68//26 67//24
f 86//26 87//28 68//26
f 87//28 69//28 68//26
f 87//28 88//30 69//28
f 88//30 70//30 69//28
f 88//30 89//32 70//30
f 89//32 71//32 70//30
f 89//32 90//34 71//32
f 90//34 72//34 71//32
f 90//34 91//36 72//34
f 91//36 73//36 72//34
f 91//36 74//2 73//36
f 74//2 56//2 73//36
f 92//38 93//39 74//2
f 93//39 75//3 74//2
f 93//39 94//40 75//3
f 94//40 76//6 75//3
f 94//40 95//41 76//6
f 95//41 77//8 76//6
f 95//41 96//42 77//8
f 96//42 78//10 77//8
f 96//42 97//43 78//10
f 97//43 79//12 78//10
f 97//43 98//44 79//12
f 98//44 80//14 79//12
f 98//44 99//45 80//14
f 99//45 81//16 80//14
f 99//45 100//46 81//16
f 100//46 82//18 81//16
f 100//46 101//47 82//18
f 101//47 83//20 82//18
f 101//47 102//48 83//20
f 102//48 84//22 83//20
f 102//48 103//49 84//22
f 103//49 85//24 84//22
f 103//49 104//50 85//24
f 104//50 86//26 85//24
f 104//50 105//51 86//26
f 105//51 87//28 86//26
f 105//51 106//52 87//28
f 106//52 88//30 87//28
f 106//52 107//53 88//30
f 107//53 89//32 88//30
f 107//53 108//54 89//32
f 108//54 90//34 89//32
f 108//54 109//55 90//34
f 109//55 91//36 90//34
f 109//55 92//38 91//36
f 92//38 74//2 91//36
f 93//56 92//56 110//56
f 94//56 93//56 110//56
f 95//56 94//56 110//56
f 96//56 95//56 110//56
f 97//56 96//56 110//56
f 98//56 97//56 110//56
f 99//56 98//56 110//56
f 100//56 99//56 110//56
f 101//56 100//56 110//56
f 102//56 101//56 110//56
f 103//56 102//56 110//56
f 104//56 103//56 110//56
f 105//56 104//56 110//56
f 106//56 105//56 110//56
f 107//56 106//56 110//56
f 108//56 107//56 110//56
f 109//56 108//56 110//56
f 92//56 109//56 110//56
f 111//1 112//1 113//1
f 112//1 114//1 113//1
f 114//1 115//1 113//1
f 115//1 116//1 113//1
f 116//1 117//1 113//1
f 117//1 118//1 113//1
f 118//1 119//1 113//1
f 119//1 120//1 113//1
f 120//1 121//1 113//1
f 121//1 122//1 113//1
f 122//1 123//1 113//1
f 123//1 124//1 113//1
f 124//1 125//1 113//1
f 125//1 126//1 113//1
f 126//1 127//1 113//1
f 127//1 128//1 113//1
f 128//1 129//1 113//1
f 129//1 111//1 113//1
f 130//57 131//58 111//59
f 131//58 112//60 111//59
f 131//58 132//61 112//60
f 132//61 114//62 112//60
f 132//61 133//63 114//62
f 133//63 115//64 114//62
f 133//63 134//65 115//64
f 134//65 116//66 115//64
f 134//65 135//67 116//66
f 135//67 117//68 116//66
f 135//67 136//69 117//68
f 136//69 118//70 117//68
f 136//69 137//71 118//70
f 137//71 119//72 118//70
f 137//71 138//73 119//72
f 138//73 120//74 119//72
f 138//73 139//75 120//74
f 139//75 121//76 120//74
f 139//75 140//77 121//76
f 140//77 122//78 121//76
f 140//77 141//79 122//78
f 141//79 123//80 122//78
f 141//79 142//81 123//80
f 142//81 124//82 123//80
f 142//81 143//83 124//82
f 143//83 125//84 124//82
f 143//83 144//85 125//84
f 144//85 126//86 125//84
f 144//85 145//87 126//86
f 145//87 127//88 126//86
f 145//87 146//89 127//88
f 146//89 128//90 127//88
f 146//89 147//91 128//90
f 147//91 129//92 128//90
f 147//91 130//57 129//92
f 130//57 111//59 129//92
f 148//57 149//58 130//57
f 149//58 131//58 130//57
f 149//58 150//61 131//58
f 150//61 132//61 131//58
f 150//61 151//63 132//61
f 151//63 133//63 132//61
f 151//63 152//65 133//63
f 152//65 134//65 133//63
f 152//65 153//67 134//65
f 153//67 135//67 134//65
f 153//67 154//69 135//67
f 154//69 136//69 135//67
f 154//69 155//71 136//69
f 155//71 137//71 136//69
f 155//71 156//73 137//71
f 156//73 138//73 137//71
f 156//73 157//75 138//73
f 157//75 139//75 138//73
f 157//75 158//77 139//75
f 158//77 140//77 139//75
f 158//77 159//79 140//77
f 159//79 141//79 140//77
f 159//79 160//81 141//79
f 160//81 142//81 141//79
f 160//81 161//83 142//81
f 161//83 143//83 142//81
f 161//83 162//85 143//83
f 162//85 144//85 143//83
f 162//85 163//87 144//85
f 163//87 145//87 144//85
f 163//87 164//89 145//87
f 164//89 146//89 145//87
f 164//89 165//91 146//89
f 165//91 147//91 146//89
f 165//91 148//57 147//91
f 148//57 130//57 147//91
f 166//57 167//58 148//57
f 167//58 149//58 148//57
f 167//58 168//61 149//58
f 168//61 150//61 149//58
f 168//61 169//63 150//61
f 169//63 151//63 150//61
f 169//63 170//65 151//63
f 170//65 152//65 151//63
f 170//65 171//67 152//65
f 171//67 153//67 152//65
f 171//67 172//69 153//67
f 172//69 154//69 153//67
f 172//69 173//71 154//69
f 173//71 155//71 154//69
f 173//71 174//73 155//71
f 174//73 156//73 155//71
f 174//73 175//75 156//73
f 175//75 157//75 156//73
f 175//75 176//77 157//75
f 176//77 158//77 157//75
f 176//77 177//79 158//77
f 177//79 159//79 158//77
f 177//79 178//81 159//79
f 178//81 160//81 159//79
f 178//81 179//83 160//81
f 179//83 161//83 160//81
f 179//83 180//85 161//83
f 180//85 162//85 161//83
f 180//85 181//87 162//85
f 181//87 163//87 162//85
f 181//87 182//89 163//87
f 182//89 164//89 163//87
f 182//89 183//91 164//89
f 183//91 165//91 164//89
f 183//91 166//57 165//91
f 166//57 148//57 165//91
f 184//57 185//58 166//57
f 185//58 167//58 166//57
f 185//58 186//61 167//58
f 186//61 168//61 167//58
f 186//61 187//63 168//61
f 187//63 169//63 168//61
f 187//63 188//65 169//63
f 188//65 170//65 169//63
f 188//65 189//67 170//65
f 189//67 171//67 170//65
f 189//67 190//69 171//67
f 190//69 172//69 171//67
f 190//69 191//71 172//69
f 191//71 173//71 172//69
f 191//71 192//73 173//71
f 192//73 174//73 173//71
f 192//73 193//75 174//73
f 193//75 175//75 174//73
f 193//75 194//77 175//75
f 194//77 176//77 175//75
f 194//77 195//79 176//77
f 195//79 177//79 176//77
f 195//79 196//81 177//79
f 196//81 178//81 177//79
f 196//81 197//83 178//81
f 197//83 179//83 178//81
f 197//83 198//85 179//83
f 198//85 180//85 179//83
f 198//85 199//87 180//85
f 199//87 181//87 180//85
f 199//87 200//89 181//87
f 200//89 182//89 181//87
f 200//89 201//91 182//89
f 201//91 183//91 182//89
f 201//91 184//57 183//91
f 184//57 166//57 183//91
f 202//93 203//94 184//57
f 203//94 185//58 184//57
f 203//94 204//95 185//58
f 204//95 186//61 185//58
f 204//95 205//96 186//61
f 205//96 187//63 186//61
f 205//96 206//97 187//63
f 206//97 188//65 187//63
f 206//97 207//98 188//65
f 207//98 189//67 188//65
f 207//98 208//99 189//67
f 208//99 190//69 189//67
f 208//99 209//100 190//69
f 209//100 191//71 190//69
f 209//100 210//101 191//71
f 210//101 192//73 191//71
f 210//101 211//102 192//73
f 211//102 193//75 192//73
f 211//102 212//103 193//75
f 212//103 194//77 193//75
f 212//103 213//104 194//77
f 213//104 195//79 194//77
f 213//104 214//105 195//79
f 214//105 196//81 195//79
f 214//105 215//106 196//81
f 215//106 197//83 196//81
f 215//106 216//107 197//83
f 216//107 198//85 197//83
f 216//107 217//108 198//85
f 217//108 199//87 198//85
f 217//108 218//109 199//87
f 218//109 200//89 199//87
f 218//109 219//110 200//89
f 219//110 201//91 200//89
f 219//110 202//93 201//91
f 202//93 184//57 201//91
f 203//56 202//56 220//56
f 204//56 203//56 220//56
f 205//56 204//56 220//56
f 206//56 205//56 220//56
f 207//56 206//56 220//56
f 208//56 207//56 220//56
f 209//56 208//56 220//56
f 210//56 209//56 220//56
f 211//56 210//56 220//56
f 212//56 211//56 220//56
f 213//56 212//56 220//56
f 214//56 213//56 220//56
f 215//56 214//56 220//56
f 216//56 215//56 220//56
f 217//56 216//56 220//56
f 218//56 217//56 220//56
f 219//56 218//56 220//56
f 202//56 219//56 220//56
f 221//1 222//1 223//1
f 222//1 224//1 223//1
f 224//1 225//1 223//1
f 225//1 226//1 223//1
f 226//1 227//1 223//1
f 227//1 228//1 223//1
f 228//1 229//1 223//1
f 229//1 230//1 223//1
f 230//1 231//1 223//1
f 231//1 232//1 223//1
f 232//1 233//1 223//1
f 233//1 234//1 223//1
f 234//1 235//1 223//1
f 235//1 236//1 223//1
f 236//1 237//1 223//1
f 237//1 238//1 223//1
f 238//1 239//1 223//1
f 239//1 221//1 223//1
f 240//111 241//112 221//113
f 241//112 222//114 221//113
f 241//112 242//115 222//114
f 242//115 224//116 222//114
f 242//115 243//117 224//116
f 243//117 225//118 224//116
f 243//117 244//119 225//118
f 244//119 226//120 225//118
f 244//119 245//121 226//120
f 245//121 227//122 226//120
f 245//121 246//123 227//122
f 246//123 228//124 227//122
f 246//123 247//125 228//124
f 247//125 229//126 228//124
f 247//125 248//127 229//126
f 248//127 230//128 229//126
f 248//127 249//129 230//128
f 249//129 231//130 230//128
f 249//129 250//131 231//130
f 250//131 232//132 231//130
f 250//131 251//133 232//132
f 251//133 233//134 232//132
f 251//133 252//135 233//134
f 252//135 234//136 233//134
f 252//135 253//137 234//136
f 253//137 235//138 234//136
f 253//137 254//139 235//138
f 254//139 236//140 235//138
f 254//139 255//141 236//140
f 255//141 237//142 236//140
f 255//141 256//143 237//142
f 256//143 238//144 237//142
f 256//143 257//145 238//144
f 257//145 239//146 238//144
f 257//145 240//111 239//146
f 240//111 221//113 239//146
f 258//111 259//112 240//111
f 259//112 241//112 240//111
f 259//112 260//115 241//112
f 260//115 242//115 241//112
f 260//115 261//117 242//115
f 261//117 243//117 242//115
f 261//117 262//119 243//117
f 262//119 244//119 243//117
f 262//119 263//121 244//119
f 263//121 245//121 244//119
f 263//121 264//123 245//121
f 264//123 246//123 245//121
f 264//123 265//125 246//123
f 265//125 247//125 246//123
f 265//125 266//127 247//125
f 266//127 248//127 247//125
f 266//127 267//129 248//127
f 267//129 249//129 248//127
f 267//129 268//131 249//129
f 268//131 250//131 249//129
f 268//131 269//133 250//131
f 269//133 251//133 250//131
f 269//133 270//135 251//133
f 270//135 252//135 251//133
f 270//135 271//137 252//135
f 271//137 253//137 252//135
f 271//137 272//139 253//137
f 272//139 254//139 253//137
f 272//139 273//141 254//139
f 273//141 255//141 254//139
f 273//141 274//143 255//141
f 274//143 256//143 255//141
f 274//143 275//145 256//143
f 275//145 257//145 256//143
f 275//145 258//111 257//145
f 258//111 240//111 257//145
f 276//111 277//112 258//111
f 277//112 259//112 258//111
f 277//112 278//115 259//112
f 278//115 260//115 259//112
f 278//115 279//117 260//115
f 279//117 261//117 260//115
f 279//117 280//119 261//117
f 280//119 262//119 261//117
f 280//119 281//121 262//119
f 281//121 263//121 262//119
f 281//121 282//123 263//121
f 282//123 264//123 263//121
f 282//123 283//125 264//123
f 283//125 265//125 264//123
f 283//125 284//127 265//125
f 284//127 266//127 265//125
f 284//127 285//129 266//127
f 285//129 267//129 266//127
f 285//129 286//131 267//129
f 286//131 268//131 267//129
f 286//131 287//133 268//131
f 287//133 269//133 268//131
f 287//133 288//135 269//133
f 288//135 270//135 269//133
f 288//135 289//137 270//135
f 289//137 271//137 270//135
f 289//137 290//139 271//137
f 290//139 272//139 271//137
f 290//139 291//141 272//139
f 291//141 273//141 272//139
f 291//141 292//143 273//141
f 292//143 274//143 273//141
f 292//143 293//145 274//143
f 293//145 275//145 274//143
f 293//145 276//111 275//145
f 276//111 258//111 275//145
f 294//111 295//112 276//111
f 295//112 277//112 276//111
f 295//112 296//115 277//112
f 296//115 278//115 277//112
f 296//115 297//117 278//115
f 297//117 279//117 278//115
f 297//117 298//119 279//117
f 298//119 280//119 279//117
f 298//119 299//121 280//119
f 299//121 281//121 280//119
f 299//121 300//123 281//121
f 300//123 282//123 281//121
f 300//123 301//125 282//123
f 301//125 283//125 282//123
f 301//125 302//127 283//125
f 302//127 284//127 283//125
f 302//127 303//129 284//127
f 303//129 285//129 284//127
f 303//129 304//131 285//129
f 304//131 286//131 285//129
f 304//131 305//133 286//131
f 305//133 287//133 286//131
f 305//133 306//135 287//133
f 306//135 288//135 287//133
f 306//135 307//137 288//135
f 307//137 289//137 288//135
f 307//137 308//139 289//137
f 308//139 290//139 289//137
f 308//139 309//141 290//139
f 309//141 291//141 290//139
f 309//141 310//143 291//141
f 310//143 292//143 291//141
f 310//143 311//145 292//143
f 311//145 293//145 292//143
f 311//145 294//111 293//145
f 294//111 276//111 293//145
f 312//147 313//148 294//111
f 313//148 295//112 294//111
f 313//148 314//149 295//112
f 314//149 296//115 295//112
f 314//149 315//150 296//115
f 315//150 297//117 296//115
f 315//150 316//151 297//117
f 316//151 298//119 297//117
f 316//151 317//152 298//119
f 317//152 299//121 298//119
f 317//152 318//153 299//121
f 318//153 300//123 299//121
f 318//153 319//154 300//123
f 319//154 301//125 300//123
f 319//154 320//155 301//125
f 320//155 302//127 301//125
f 320//155 321//156 302//127
f 321//156 303//129 302//127
f 321//156 322//157 303//129
f 322//157 304//131 303//129
f 322//157 323//158 304//131
f 323//158 305//133 304//131
f 323//158 324//159 305//133
f 324//159 306//135 305//133
f 324//159 325//160 306//135
f 325//160 307//137 306//135
f 325//160 326//161 307//137
f 326//161 308//139 307//137
f 326//161 327//162 308//139
f 327//162 309//141 308//139
f 327//162 328//163 309//141
f 328//163 310//143 309//141
f 328//163 329//164 310//143
f 329//164 311//145 310//143
f 329//164 312//147 311//145
f 312//147 294//111 311//145
f 313//56 312//56 330//56
f 314//56 313//56 330//56
f 315//56 314//56 330//56
f 316//56 315//56 330//56
f 317//56 316//56 330//56
f 318//56 317//56 330//56
f 319//56 318//56 330//56
f 320//56 319//56 330//56
f 321//56 320//56 330//56
f 322//56 321//56 330//56
f 323//56 322//56 330//56
f 324//56 323//56 330//56
f 325//56 324//56 330//56
f 326//56 325//56 330//56
f 327//56 326//56 330//56
f 328//56 327//56 330//56
f 329//56 328//56 330//56
f 312//56 329//56 330//56
f 331//1 332//1 333//1
f 332//1 334//1 333//1
f 334//1 335//1 333//1
f 335//1 336//1 333//1
f 336//1 337//1 333//1
f 337//1 338//1 333//1
f 338//1 339//1 333//1
f 339//1 340//1 333//1
f 340//1 341//1 333//1
f 341//1 342//1 333//1
f 342//1 343//1 333//1
f 343//1 344//1 333//1
f 344//1 345//1 333//1
f 345//1 346//1 333//1
f 346//1 347//1 333//1
f 347//1 348//1 333//1
f 348//1 349//1 333//1
f 349//1 331//1 333//1
f 350//165 351//166 331//167
f 351//166 332//168 331//167
f 351//166 352//169 332//168
f 352//169 334//170 332//168
f 352//169 353//171 334//170
f 353//171 335//172 334//170
f 353//171 354//173 335//172
f 354//173 336//174 335//172
f 354//173 355//175 336//174
f 355//175 337//176 336//174
f 355//175 356//177 337//176
f 356//177 338//178 337//176
f 356//177 357//179 338//178
f 357//179 339//180 338//178
f 357//179 358//181 339//180
f 358//181 340//182 339//180
f 358//181 359//183 340//182
f 359//183 341//184 340//182
f 359//183 360//185 341//184
f 360//185 342//186 341//184
f 360//185 361//187 342//186
f 361//187 343//188 342//186
f 361//187 362//189 343//188
f 362//189 344//190 343//188
f 362//189 363//191 344//190
f 363//191 345//192 344//190
f 363//191 364//193 345//192
f 364//193 346//194 345//192
f 364//193 365//195 346//194
f 365//195 347//196 346//194
f 365//195 366//197 347//196
f 366//197 348//198 347//196
f 366//197 367//199 348//198
f 367//199 349//200 348//198
f 367//199 350//165 349//200
f 350//165 331//167 349//200
f 368//165 369//166 350//165
f 369//166 351//166 350//165
f 369//166 370//169 351//166
f 370//169 352//169 351//166
f 370//169 371//171 352//169
f 371//171 353//171 352//169
f 371//171 372//173 353//171
f 372//173 354//173 353//171
f 372//173 373//175 354//173
f 373//175 355//175 354//173
f 373//175 374//177 355//175
f 374//177 356//177 355//175
f 374//177 375//179 356//177
f 375//179 357//179 356//177
f 375//179 376//181 357//179
f 376//181 358//181 357//179
f 376//181 377//183 358//181
f 377//183 359//183 358//181
f 377//183 378//185 359//183
f 378//185 360//185 359//183
f 378//185 379//187 360//185
f 379//187 361//187 360//185
f 379//187 380//189 361//187
f 380//189 362//189 361//187
f 380//189 381//191 362//189
f 381//191 363//191 362//189
f 381//191 382//193 363//191
f 382//193 364//193 363//191
f 382//193 383//195 364//193
f 383//195 365//195 364//193
f 383//195 384//197 365//195
f 384//197 366//197 365//195
f 384//197 385//199 366//197
f 385//199 367//199 366//197
f 385//199 368//165 367//199
f 368//165 350//165 367//199
f 386//165 387//166 368//165
f 387//166 369//166 368//165
f 387//166 388//169 369//166
f 388//169 370//169 369//166
f 388//169 389//171 370//169
f 389//171 371//171 370//169
f 389//171 390//173 371//171
f 390//173 372//173 371//171
f 390//173 391//175 372//173
f 391//175 373//175 372//173
f 391//175 392//177 373//175
f 392//177 374//177 373//175
f 392//177 393//179 374//177
f 393//179 375//179 374//177
f 393//179 394//181 375//179
f 394//181 376//181 375//179
f 394//181 395//183 376//181
f 395//183 377//183 376//181
f 395//183 396//185 377//183
f 396//185 378//185 377//183
f 396//185 397//187 378//185
f 397//187 379//187 378//185
f 397//187 398//189 379//187
f 398//189 380//189 379//187
f 398//189 399//191 380//189
f 399//191 381//191 380//189
f 399//191 400//193 381//191
f 400//193 382//193 381//191
f 400//193 401//195 382//193
f 401//195 383//195 382//193
f 401//195 402//197 383//195
f 402//197 384//197 383//195
f 402//197 403//199 384//197
f 403//199 385//199 384//197
f 403//199 386//165 385//199
f 386//165 368//165 385//199
f 404//165 405//166 386//165
f 405//166 387//166 386//165
f 405//166 406//169 387//166
f 406//169 388//169 387//166
f 406//169 407//171 388//169
f 407//171 389//171 388//169
f 407//171 408//173 389//171
f 408//173 390//173 389//171
f 408//173 409//175 390//173
f 409//175 391//175 390//173
f 409//175 410//177 391//175
f 410//177 392//177 391//175
f 410//177 411//179 392//177
f 411//179 393//179 392//177
f 411//179 412//181 393//179
f 412//181 394//181 393//179
f 412//181 413//183 394//181
f 413//183 395//183 394//181
f 413//183 414//185 395//183
f 414//185 396//185 395//183
f 414//185 415//187 396//185
f 415//187 397//187 396//185
f 415//187 416//189 397//187
f 416//189 398//189 397//187
f 416//189 417//191 398//189
f 417//191 399//191 398//189
f 417//191 418//193 399//191
f 418//193 400//193 399//191
f 418//193 419//195 400//193
f 419//195 401//195 400//193
f 419//195 420//197 401//195
f 420//197 402//197 401//195
f 420//197 421//199 402//197
f 421//199 403//199 402//197
f 421//199 404//165 403//199
f 404//165 386//165 403//199
f 422//201 423//202 404//165
f 423//202 405//166 404//165
f 423//202 424//203 405//166
f 424//203 406//169 405//166
f 424//203 425//204 406//169
f 425//204 407//171 406//169
f 425//204 426//205 407//171
f 426//205 408//173 407//171
f 426//205 427//206 408//173
f 427//206 409//175 408//173
f 427//206 428//207 409//175
f 428//207 410//177 409//175
f 428//207 429//208 410//177
f 429//208 411//179 410//177
f 429//208 430//209 411//179
f 430//209 412//181 411//179
f 430//209 431//210 412//181
f 431//210 413//183 412//181
f 431//210 432//211 413//183
f 432//211 414//185 413//183
f 432//211 433//212 414//185
f 433//212 415//187 414//185
f 433//212 434//213 415//187
f 434//213 416//189 415//187
f 434//213 435//214 416//189
f 435//214 417//191 416//189
f 435//214 436//215 417//191
f 436//215 418//193 417//191
f 436//215 437//216 418//193
f 437//216 419//195 418//193
f 437//216 438//217 419//195
f 438//217 420//197 419//195
f 438//217 439//218 420//197
f 439//218 421//199 420//197
f 439//218 422//201 421//199
f 422//201 404//165 421//199
f 423//56 422//56 440//56
f 424//56 423//56 440//56
f 425//56 424//56 440//56
f 426//56 425//56 440//56
f 427//56 426//56 440//56
f 428//56 427//56 440//56
f 429//56 428//56 440//56
f 430//56 429//56 440//56
f 431//56 430//56 440//56
f 432//56 431//56 440//56
f 433//56 432//56 440//56
f 434//56 433//56 440//56
f 435//56 434//56 440//56
f 436//56 435//56 440//56
f 437//56 436//56 440//56
f 438//56 437//56 440//56
f 439//56 438//56 440//56
f 422//56 439//56 440//56
f 441//1 442//1 443//1
f 442//1 444//1 443//1
f 444//1 445//1 443//1
f 445//1 446//1 443//1
f 446//1 447//1 443//1
f 447//1 448//1 443//1
f 448//1 449//1 443//1
f 449//1 450//1 443//1
f 450//1 451//1 443//1
f 451//1 452//1 443//1
f 452//1 453//1 443//1
f 453//1 454//1 443//1
f 454//1 455//1 443//1
f 455//1 456//1 443//1
f 456//1 457//1 443//1
f 457//1 458//1 443//1
f 458//1 459//1 443//1
f 459//1 441//1 443//1
f 460//219 461//220 441//221
f 461//220 442//222 441//221
f 461//220 462//223 442//222
f 462//223 444//224 442//222
f 462//223 463//225 444//224
f 463//225 445//226 444//224
f 463//225 464//227 445//226
f 464//227 446//228 445//226
f 464//227 465//229 446//228
f 465//229 447//230 446//228
f 465//229 466//231 447//230
f 466//231 448//232 447//230
f 466//231 467//233 448//232
f 467//233 449//234 448//232
f 467//233 468//235 449//234
f 468//235 450//236 449//234
f 468//235 469//237 450//236
f 469//237 451//238 450//236
f 469//237 470//239 451//238
f 470//239 452//240 451//238
f 470//239 471//241 452//240
f 471//241 453//242 452//240
f 471//241 472//243 453//242
f 472//243 454//244 453//242
f 472//243 473//245 454//244
f 473//245 455//246 454//244
f 473//245 474//247 455//246
f 474//247 456//248 455//246
f 474//247 475//249 456//248
f 475//249 457//250 456//248
f 475//249 476//251 457//250
f 476//251 458//252 457//250
f 476//251 477//253 458//252
f 477//253 459//254 458//252
f 477//253 460//219 459//254
f 460//219 441//221 459//254
f 478//219 479//220 460//219
f 479//220 461//220 460//219
f 479//220 480//223 461//220
f 480//223 462//223 461//220
f 480//223 481//225 462//223
f 481//225 463//225 462//223
f 481//225 482//227 463//225
f 482//227 464//227 463//225
f 482//227 483//229 464//227
f 483//229 465//229 464//227
f 483//229 484//231 465//229
f 484//231 466//231 465//229
f 484//231 485//233 466//231
f 485//233 467//233 466//231
f 485//233 486//235 467//233
f 486//235 468//235 467//233
f 486//235 487//237 468//235
f 487//237 469//237 468//235
f 487//237 488//239 469//237
f 488//239 470//239 469//237
f 488//239 489//241 470//239
f 489//241 471//241 470//239
f 489//241 490//243 471//241
f 490//243 472//243 471//241
f 490//243 491//245 472//243
f 491//245 473//245 472//243
f 491//245 492//247 473//245
f 492//247 474//247 473//245
f 492//247 493//249 474//247
f 493//249 475//249 474//247
f 493//249 494//251 475//249
f 494//251 476//251 475//249
f 494//251 495//253 476//251
f 495//253 477//253 476//251
f 495//253 478//219 477//253
f 478//219 460//219 477//253
f 496//219 497//220 478//219
f 497//220 479//220 478//219
f 497//220 498//223 479//220
f 498//223 480//223 479//220
f 498//223 499//225 480//223
f 499//225 481//225 480//223
f 499//225 500//227 481//225
f 500//227 482//227 481//225
f 500//227 501//229 482//227
f 501//229 483//229 482//227
f 501//229 502//231 483//229
f 502//231 484//231 483//229
f 502//231 503//233 484//231
f 503//233 485//233 484//231
f 503//233 504//235 485//233
f 504//235 486//235 485//233
f 504//235 505//237 486//235
f 505//237 487//237 486//235
f 505//237 506//239 487//237
f 506//239 488//239 487//237
f 506//239 507//241 488//239
f 507//241 489//241 488//239
f 507//241 508//243 489//241
f 508//243 490//243 489//241
f 508//243 509//245 490//243
f 509//245 491//245 490//243
f 509//245 510//247 491//245
f 510//247 492//247 491//245
f 510//247 511//249 492//247
f 511//249 493//249 492//247
f 511//249 512//251 493//249
f 512//251 494//251 493//249
f 512//251 513//253 494//251
f 513//253 495//253 494//251
f 513//253 496//219 495//253
f 496//219 478//219 495//253
f 514//219 515//220 496//219
f 515//220 497//220 496//219
f 515//220 516//223 497//220
f 516//223 498//223 497//220
f 516//223 517//225 498//223
f 517//225 499//225 498//223
f 517//225 518//227 499//225
f 518//227 500//227 499//225
f 518//227 519//229 500//227
f 519//229 501//229 500//227
f 519//229 520//231 501//229
f 520//231 502//231 501//229
f 520//231 521//233 502//231
f 521//233 503//233 502//231
f 521//233 522//235 503//233
f 522//235 504//235 503//233
f 522//235 523//237 504//235
f 523//237 505//237 504//235
f 523//237 524//239 505//237
f 524//239 506//239 505//237
f 524//239 525//241 506//239
f 525//241 507//241 506//239
f 525//241 526//243 507//241
f 526//243 508//243 507//241
f 526//243 527//245 508//243
f 527//245 509//245 508//243
f 527//245 528//247 509//245
f 528//247 510//247 509//245
f 528//247 529//249 510//247
f 529//249 511//249 510//247
f 529//249 530//251 511//249
f 530//251 512//251 511//249
f 530//251 531//253 512//251
f 531//253 513//253 512//251
f 531//253 514//219 513//253
f 514//219 496//219 513//253
f 532//255 533//256 514//219
f 533//256 515//220 514//219
f 533//256 534//257 515//220
f 534//257 516//223 515//220
f 534//257 535//258 516//223
f 535//258 517//225 516//223
f 535//258 536//259 517//225
f 536//259 518//227 517//225
f 536//259 537//260 518//227
f 537//260 519//229 518//227
f 537//260 538//261 519//229
f 538//261 520//231 519//229
f 538//261 539//262 520//231
f 539//262 521//233 520//231
f 539//262 540//263 521//233
f 540//263 522//235 521//233
f 540//263 541//264 522//235
f 541//264 523//237 522//235
f 541//264 542//265 523//237
f 542//265 524//239 523//237
f 542//265 543//266 524//239
f 543//266 525//241 524//239
f 543//266 544//267 525//241
f 544//267 526//243 525//241
f 544//267 545//268 526//243
f 545//268 527//245 526//243
f 545//268 546//269 527//245
f 546//269 528//247 527//245
f 546//269 547//270 528//247
f 547//270 529//249 528//247
f 547//270 548//271 529//249
f 548//271 530//251 529//249
f 548//271 549//272 530//251
f 549//272 531//253 530//251
f 549//272 532//255 531//253
f 532//255 514//219 531//253
f 533//56 532//56 550//56
f 534//56 533//56 550//56
f 535//56 534//56 550//56
f 536//56 535//56 550//56
f 537//56 536//56 550//56
f 538//56 537//56 550//56
f 539//56 538//56 550//56
f 540//56 539//56 550//56
f 541//56 540//56 550//56
f 542//56 541//56 550//56
f 543//56 542//56 550//56
f 544//56 543//56 550//56
f 545//56 544//56 550//56
f 546//56 545//56 550//56
f 547//56 546//56 550//56
f 548//56 547//56 550//56
f 549//56 548//56 550//56
f 532//56 549//56 550//56
f 551//1 552//1 553//1
f 552//1 554//1 553//1
f 554//1 555//1 553//1
f 555//1 556//1 553//1
f 556//1 557//1 553//1
f 557//1 558//1 553//1
f 558//1 559//1 553//1
f 559//1 560//1 553//1
f 560//1 561//1 553//1
f 561//1 562//1 553//1
f 562//1 563//1 553//1
f 563//1 564//1 553//1
f 564//1 565//1 553//1
f 565//1 566//1 553//1
f 566//1 567//1 553//1
f 567//1 568//1 553//1
f 568//1 569//1 553//1
f 569//1 551//1 553//1
f 570//273 571//274 551//275
f 571//274 552//276 551//275
f 571//274 572//277 552//276
f 572//277 554//278 552//276
f 572//277 573//279 554//278
f 573//279 555//280 554//278
f 573//279 574//281 555//280
f 574//281 556//282 555//280
f 574//281 575//283 556//282
f 575//283 557//284 556//282
f 575//283 576//285 557//284
f 576//285 558//286 557//284
f 576//285 577//287 558//286
f 577//287 559//288 558//286
f 577//287 578//289 559//288
f 578//289 560//290 559//288
f 578//289 579//291 560//290
f 579//291 561//292 560//290
f 579//291 580//293 561//292
f 580//293 562//294 561//292
f 580//293 581//295 562//294
f 581//295 563//296 562//294
f 581//295 582//297 563//296
f 582//297 564//298 563//296
f 582//297 583//299 564//298
f 583//299 565//300 564//298
f 583//299 584//301 565//300
f 584//301 566//302 565//300
f 584//301 585//303 566//302
f 585//303 567//304 566//302
f 585//303 586//305 567//304
f 586//305 568//306 567//304
f 586//305 587//307 568//306
f 587//307 569//308 568//306
f 587//307 570//273 569//308
f 570//273 551//275 569//308
f 588//273 589//274 570//273
f 589//274 571//274 570//273
f 589//274 590//277 571//274
f 590//277 572//277 571//274
f 590//277 591//279 572//277
f 591//279 573//279 572//277
f 591//279 592//281 573//279
f 592//281 574//281 573//279
f 592//281 593//283 574//281
f 593//283 575//283 574//281
f 593//283 594//285 575//283
f 594//285 576//285 575//283
f 594//285 595//287 576//285
f 595//287 577//287 576//285
f 595//287 596//289 577//287
f 596//289 578//289 577//287
f 596//289 597//291 578//289
f 597//291 579//291 578//289
f 597//291 598//293 579//291
f 598//293 580//293 579//291
f 598//293 599//295 580//293
f 599//295 581//295 580//293
f 599//295 600//297 581//295
f 600//297 582//297 581//295
f 600//297 601//299 582//297
f 601//299 583//299 582//297
f 601//299 602//301 583//299
f 602//301 584//301 583//299
f 602//301 603//303 584//301
f 603//303 585//303 584//301
f 603//303 604//305 585//303
f 604//305 586//305 585//303
f 604//305 605//307 586//305
f 605//307 587//307 586//305
f 605//307 588//273 587//307
f 588//273 570//273 587//307
f 606//273 607//274 588//273
f 607//274 589//274 588//273
f 607//274 608//277 589//274
f 608//277 590//277 589//274
f 608//277 609//279 590//277
f 609//279 591//279 590//277
f 609//279 610//281 591//279
f 610//281 592//281 591//279
f 610//281 611//283 592//281
f 611//283 593//283 592//281
f 611//283 612//285 593//283
f 612//285 594//285 593//283
f 612//285 613//287 594//285
f 613//287 595//287 594//285
f 613//287 614//289 595//287
f 614//289 596//289 595//287
f 614//289 615//291 596//289
f 615//291 597//291 596//289
f 615//291 616//293 597//291
f 616//293 598//293 597//291
f 616//293 617//295 598//293
f 617//295 599//295 598//293
f 617//295 618//297 599//295
f 618//297 600//297 599//295
f 618//297 619//299 600//297
f 619//299 601//299 600//297
f 619//299 620//301 601//299
f 620//301 602//301 601//299
f 620//301 621//303 602//301
f 621//303 603//303 602//301
f 621//303 622//305 603//303
f 622//305 604//305 603//303
f 622//305 623//307 604//305
f 623//307 605//307 604//305
f 623//307 606//273 605//307
f 606//273 588//273 605//307
f 624//273 625//274 606//273
f 625//274 607//274 606//273
f 625//274 626//277 607//274
f 626//277 608//277 607//274
f 626//277 627//279 608//277
f 627//279 609//279 608//277
f 627//279 628//281 609//279
f 628//281 610//281 609//279
f 628//281 629//283 610//281
f 629//283 611//283 610//281
f 629//283 630//285 611//283
f 630//285 612//285 611//283
f 630//285 631//287 612//285
f 631//287 613//287 612//285
f 631//287 632//289 613//287
f 632//289 614//289 613//287
f 632//289 633//291 614//289
f 633//291 615//291 614//289
f 633//291 634//293 615//291
f 634//293 616//293 615//291
f 634//293 635//295 616//293
f 635//295 617//295 616//293
f 635//295 636//297 617//295
f 636//297 618//297 617//295
f 636//297 637//299 618//297
f 637//299 619//299 618//297
f 637//299 638//301 619//299
f 638//301 620//301 619//299
f 638//301 639//303 620//301
f 639//303 621//303 620//301
f 639//303 640//305 621//303
f 640//305 622//305 621//303
f 640//305 641//307 622//305
f 641//307 623//307 622//305
f 641//307 624//273 623//307
f 624//273 606//273 623//307
f 642//309 643//310 624//273
f 643//310 625//274 624//273
f 643//310 644//311 625//274
f 644//311 626//277 625//274
f 644//311 645//312 626//277
f 645//312 627//279 626//277
f 645//312 646//313 627//279
f 646//313 628//281 627//279
f 646//313 647//314 628//281
f 647//314 629//283 628//281
f 647//314 648//315 629//283
f 648//315 630//285 629//283
f 648//315 649//316 630//285
f 649//316 631//287 630//285
f 649//316 650//317 631//287
f 650//317 632//289 631//287
f 650//317 651//318 632//289
f 651//318 633//291 632//289
f 651//318 652//319 633//291
f 652//319 634//293 633//291
f 652//319 653//320 634//293
f 653//320 635//295 634//293
f 653//320 654//321 635//295
f 654//321 636//297 635//295
f 654//321 655//322 636//297
f 655//322 637//299 636//297
f 655//322 656//323 637//299
f 656//323 638//301 637//299
f 656//323 657//324 638//301
f 657//324 639//303 638//301
f 657//324 658//325 639//303
f 658//325 640//305 639//303
f 658//325 659//326 640//305
f 659//326 641//307 640//305
f 659//326 642//309 641//307
f 642//309 624//273 641//307
f 643//56 642//56 660//56
f 644//56 643//56 660//56
f 645//56 644//56 660//56
f 646//56 645//56 660//56
f 647//56 646//56 660//56
f 648//56 647//56 660//56
f 649//56 648//56 660//56
f 650//56 649//56 660//56
f 651//56 650//56 660//56
f 652//56 651//56 660//56
f 653//56 652//56 660//56
f 654//56 653//56 660//56
f 655//56 654//56 660//56
f 656//56 655//56 660//56
f 657//56 656//56 660//56
f 658//56 657//56 660//56
f 659//56 658//56 660//56
f 642//56 659//56 660//56
f 661//1 662//1 663//1
f 662//1 664//1 663//1
f 664//1 665//1 663//1
f 665//1 666//1 663//1
f 666//1 667//1 663//1
f 667//1 668//1 663//1
f 668//1 669//1 663//1
f 669//1 670//1 663//1
f 670//1 671//1 663//1
f 671//1 672//1 663//1
f 672//1 673//1 663//1
f 673//1 674//1 663//1
f 674//1 675//1 663//1
f 675//1 676//1 663//1
f 676//1 677//1 663//1
f 677//1 678//1 663//1
f 678//1 679//1 663//1
f 679//1 661//1 663//1
f 680//327 681//328 661//329
f 681//328 662//330 661//329
f 681//328 682//331 662//330
f 682//331 664//332 662//330
f 682//331 683//333 664//332
f 683//333 665//334 664//332
f 683//333 684//335 665//334
f 684//335 666//336 665//334
f 684//335 685//337 666//336
f 685//337 667//338 666//336
f 685//337 686//339 667//338
f 686//339 668//340 667//338
f 686//339 687//341 668//340
f 687//341 669//342 668//340
f 687//341 688//343 669//342
f 688//343 670//344 669//342
f 688//343 689//345 670//344
f 689//345 671//346 670//344
f 689//345 690//347 671//346
f 690//347 672//348 671//346
f 690//347 691//349 672//348
f 691//349 673//350 672//348
f 691//349 692//351 673//350
f 692//351 674//352 673//350
f 692//351 693//353 674//352
f 693//353 675//354 674//352
f 693//353 694//355 675//354
f 694//355 676//356 675//354
f 694//355 695//357 676//356
f 695//357 677//358 676//356
f 695//357 696//359 677//358
f 696//359 678//360 677//358
f 696//359 697//361 678//360
f 697//361 679//362 678//360
f 697//361 680//327 679//362
f 680//327 661//329 679//362
f 698//327 699//328 680//327
f 699//328 681//328 680//327
f 699//328 700//331 681//328
f 700//331 682//331 681//328
f 700//331 701//333 682//331
f 701//333 683//333 682//331
f 701//333 702//335 683//333
f 702//335 684//335 683//333
f 702//335 703//337 684//335
f 703//337 685//337 684//335
f 703//337 704//339 685//337
f 704//339 686//339 685//337
f 704//339 705//341 686//339
f 705//341 687//341 686//339
f 705//341 706//343 687//341
f 706//343 688//343 687//341
f 706//343 707//345 688//343
f 707//345 689//345 688//343
f 707//345 708//347 689//345
f 708//347 690//347 689//345
f 708//347 709//349 690//347
f 709//349 691//349 690//347
f 709//349 710//351 691//349
f 710//351 692//351 691//349
f 710//351 711//353 692//351
f 711//353 693//353 692//351
f 711//353 712//355 693//353
f 712//355 694//355 693//353
f 712//355 713//357 694//355
f 713//357 695//357 694//355
f 713//357 714//359 695//357
f 714//359 696//359 695//357
f 714//359 715//361 696//359
f 715//361 697//361 696//359
f 715//361 698//327 697//361
f 698//327 680//327 697//361
f 716//327 717//328 698//327
f 717//328 699//328 698//327
f 717//328 718//331 699//328
f 718//331 700//331 699//328
f 718//331 719//333 700//331
f 719//333 701//333 700//331
f 719//333 720//335 701//333
f 720//335 702//335 701//333
f 720//335 721//337 702//335
f 721//337 703//337 702//335
f 721//337 722//339 703//337
f 722//339 704//339 703//337
f 722//339 723//341 704//339
f 723//341 705//341 704//339
f 723//341 724//343 705//341
f 724//343 706//343 705//341
f 724//343 725//345 706//343
f 725//345 707//345 706//343
f 725//345 726//347 707//345
f 726//347 708//347 707//345
f 726//347 727//349 708//347
f 727//349 709//349 708//347
f 727//349 728//351 709//349
f 728//351 710//351 709//349
f 728//351 729//353 710//351
f 729//353 711//353 710//351
f 729//353 730//355 711//353
f 730//355 712//355 711//353
f 730//355 731//357 712//355
f 731//357 713//357 712//355
f 731//357 732//359 713//357
f 732//359 714//359 713//357
f 732//359 733//361 714//359
f 733//361 715//361 714//359
f 733//361 716//327 715//361
f 716//327 698//327 715//361
f 734//327 735//328 716//327
f 735//328 717//328 716//327
f 735//328 736//331 717//328
f 736//331 718//331 717//328
f 736//331 737//333 718//331
f 737//333 719//333 718//331
f 737//333 738//335 719//333
f 738//335 720//335 719//333
f 738//335 739//337 720//335
f 739//337 721//337 720//335
f 739//337 740//339 721//337
f 740//339 722//339 721//337
f 740//339 741//341 722//339
f 741//341 723//341 722//339
f 741//341 742//343 723//341
f 742//343 724//343 723//341
f 742//343 743//345 724//343
f 743//345 725//345 724//343
f 743//345 744//347 725//345
f 744//347 726//347 725//345
f 744//347 745//349 726//347
f 745//349 727//349 726//347
f 745//349 746//351 727//349
f 746//351 728//351 727//349
f 746//351 747//353 728//351
f 747//353 729//353 728//351
f 747//353 748//355 729//353
f 748//355 730//355 729//353
f 748//355 749//357 730//355
f 749//357 731//357 730//355
f 749//357 750//359 731//357
f 750//359 732//359 731//357
f 750//359 751//361 732//359
f 751//361 733//361 732//359
f 751//361 734//327 733//361
f 734//327 716//327 733//361
f 752//363 753//364 734//327
f 753//364 735//328 734//327
f 753//364 754//365 735//328
f 754//365 736//331 735//328
f 754//365 755//366 736//331
f 755//366 737//333 736//331
f 755//366 756//367 737//333
f 756//367 738//335 737//333
f 756//367 757//368 738//335
f 757//368 739//337 738//335
f 757//368 758//369 739//337
f 758//369 740//339 739//337
f 758//369 759//370 740//339
f 759//370 741//341 740//339
f 759//370 760//371 741//341
f 760//371 742//343 741//341
f 760//371 761//372 742//343
f 761//372 743//345 742//343
f 761//372 762//373 743//345
f 762//373 744//347 743//345
f 762//373 763//374 744//347
f 763//374 745//349 744//347
f 763//374 764//375 745//349
f 764//375 746//351 745//349
f 764//375 765//376 746//351
f 765//376 747//353 746//351
f 765//376 766//377 747//353
f 766//377 748//355 747//353
f 766//377 767//378 748//355
f 767//378 749//357 748//355
f 767//378 768//379 749//357
f 768//379 750//359 749//357
f 768//379 769//380 750//359
f 769//380 751//361 750//359
f 769//380 752//363 751//361
f 752//363 734//327 751//361
f 753//56 752//56 770//56
f 754//56 753//56 770//56
f 755//56 754//56 770//56
f 756//56 755//56 770//56
f 757//56 756//56 770//56
f 758//56 757//56 770//56
f 759//56 758//56 770//56
f 760//56 759//56 770//56
f 761//56 760//56 770//56
f 762//56 761//56 770//56
f 763//56 762//56 770//56
f 764//56 763//56 770//56
f 765//56 764//56 770//56
f 766//56 765//56 770//56
f 767//56 766//56 770//56
f 768//56 767//56 770//56
f 769//56 768//56 770//56
f 752//56 769//56 770//56
f 771//1 772//1 773//1
f 772//1 774//1 773//1
f 774//1 775//1 773//1
f 775//1 776//1 773//1
f 776//1 777//1 773//1
f 777//1 778//1 773//1
f 778//1 779//1 773//1
f 779//1 780//1 773//1
f 780//1 781//1 773//1
f 781//1 782//1 773//1
f 782//1 783//1 773//1
f 783//1 784//1 773//1
f 784//1 785//1 773//1
f 785//1 786//1 773//1
f 786//1 787//1 773//1
f 787//1 788//1 773//1
f 788//1 789//1 773//1
f 789//1 771//1 773//1
f 790//381 791//382 771//383
f 791//382 772//384 771//383
f 791//382 792//385 772//384
f 792//385 774//386 772//384
f 792//385 793//387 774//386
f 793//387 775//388 774//386
f 793//387 794//389 775//388
f 794//389 776//390 775//388
f 794//389 795//391 776//390
f 795//391 777//392 776//390
f 795//391 796//393 777//392
f 796//393 778//394 777//392
f 796//393 797//395 778//394
f 797//395 779//396 778//394
f 797//395 798//397 779//396
f 798//397 780//398 779//396
f 798//397 799//399 780//398
f 799//399 781//400 780//398
f 799//399 800//401 781//400
f 800//401 782//402 781//400
f 800//401 801//403 782//402
f 801//403 783//404 782//402
f 801//403 802//405 783//404
f 802//405 784//406 783//404
f 802//405 803//407 784//406
f 803//407 785//408 784//406
f 803//407 804//409 785//408
f 804//409 786//410 785//408
f 804//409 805//411 786//410
f 805//411 787//412 786//410
f 805//411 806//413 787//412
f 806//413 788//414 787//412
f 806//413 807//415 788//414
f 807//415 789//416 788//414
f 807//415 790//381 789//416
f 790//381 771//383 789//416
f 808//381 809//382 790//381
f 809//382 791//382 790//381
f 809//382 810//385 791//382
f 810//385 792//385 791//382
f 810//385 811//387 792//385
f 811//387 793//387 792//385
f 811//387 812//389 793//387
f 812//389 794//389 793//387
f 812//389 813//391 794//389
f 813//391 795//391 794//389
f 813//391 814//393 795//391
f 814//393 796//393 795//391
f 814//393 815//395 796//393
f 815//395 797//395 796//393
f 815//395 816//397 797//395
f 816//397 798//397 797//395
f 816//397 817//399 798//397
f 817//399 799//399 798//397
f 817//399 818//401 799//399
f 818//401 800//401 799//399
f 818//401 819//403 800//401
f 819//403 801//403 800//401
f 819//403 820//405 801//403
f 820//405 802//405 801//403
f 820//405 821//407 802//405
f 821//407 803//407 802//405
f 821//407 822//409 803//407
f 822//409 804//409 803//407
f 822//409 823//411 804//409
f 823//411 805//411 804//409
f 823//411 824//413 805//411
f 824//413 806//413 805//411
f 824//413 825//415 806//413
f 825//415 807//415 806//413
f 825//415 808//381 807//415
f 808//381 790//381 807//415
f 826//381 827//382 808//381
f 827//382 809//382 808//381
f 827//382 828//385 809//382
f 828//385 810//385 809//382
f 828//385 829//387 810//385
f 829//387 811//387 810//385
f 829//387 830//389 811//387
f 830//389 812//389 811//387
f 830//389 831//391 812//389
f 831//391 813//391 812//389
f 831//391 832//393 813//391
f 832//393 814//393 813//391
f 832//393 833//395 814//393
f 833//395 815//395 814//393
f 833//395 834//397 815//395
f 834//397 816//397 815//395
f 834//397 835//399 816//397
f 835//399 817//399 816//397
f 835//399 836//401 817//399
f 836//401 818//401 817//399
f 836//401 837//403 818//401
f 837//403 819//403 818//401
f 837//403 838//405 819//403
f 838//405 820//405 819//403
f 838//405 839//407 820//405
f 839//407 821//407 820//405
f 839//407 840//409 821//407
f 840//409 822//409 821//407
f 840//409 841//411 822//409
f 841//411 823//411 822//409
f 841//411 842//413 823//411
f 842//413 824//413 823//411
f 842//413 843//415 824//413
f 843//415 825//415 824//413
f 843//415 826//381 825//415
f 826//381 808//381 825//415
f 844//381 845//382 826//381
f 845//382 827//382 826//381
f 845//382 846//385 827//382
f 846//385 828//385 827//382
f 846//385 847//387 828//385
f 847//387 829//387 828//385
f 847//387 848//389 829//387
f 848//389 830//389 829//387
f 848//389 849//391 830//389
f 849//391 831//391 830//389
f 849//391 850//393 831//391
f 850//393 832//393 831//391
f 850//393 851//395 832//393
f 851//395 833//395 832//393
f 851//395 852//397 833//395
f 852//397 834//397 833//395
f 852//397 853//399 834//397
f 853//399 835//399 834//397
f 853//399 854//401 835//399
f 854//401 836//401 835//399
f 854//401 855//403 836//401
f 855//403 837//403 836//401
f 855//403 856//405 837//403
f 856//405 838//405 837//403
f 856//405 857//407 838//405
f 857//407 839//407 838//405
f 857//407 858//409 839//407
f 858//409 840//409 839//407
f 858//409 859//411 840//409
f 859//411 841//411 840//409
f 859//411 860//413 841//411
f 860//413 842//413 841//411
f 860//413 861//415 842//413
f 861//415 843//415 842//413
f 861//415 844//381 843//415
f 844//381 826//381 843//415
f 862//417 863//418 844//381
f 863//418 845//382 844//381
f 863//418 864//419 845//382
f 864//419 846//385 845//382
f 864//419 865//420 846//385
f 865//420 847//387 846//385
f 865//420 866//421 847//387
f 866//421 848//389 847//387
f 866//421 867//422 848//389
f 867//422 849//391 848//389
f 867//422 868//423 849//391
f 868//423 850//393 849//391
f 868//423 869//424 850//393
f 869//424 851//395 850//393
f 869//424 870//425 851//395
f 870//425 852//397 851//395
f 870//425 871//426 852//397
f 871//426 853//399 852//397
f 871//426 872//427 853//399
f 872//427 854//401 853//399
f 872//427 873//428 854//401
f 873//428 855//403 854//401
f 873//428 874//429 855//403
f 874//429 856//405 855//403
f 874//429 875//430 856//405
f 875//430 857//407 856//405
f 875//430 876//431 857//407
f 876//431 858//409 857//407
f 876//431 877//432 858//409
f 877//432 859//411 858//409
f 877//432 878//433 859//411
f 878//433 860//413 859//411
f 878//433 879//434 860//413
f 879//434 861//415 860//413
f 879//434 862//417 861//415
f 862//417 844//381 861//415
f 863//56 862//56 880//56
f 864//56 863//56 880//56
f 865//56 864//56 880//56
f 866//56 865//56 880//56
f 867//56 866//56 880//56
f 868//56 867//56 880//56
f 869//56 868//56 880//56
f 870//56 869//56 880//56
f 871//56 870//56 880//56
f 872//56 871//56 880//56
f 873//56 872//56 880//56
f 874//56 873//56 880//56
f 875//56 874//56 880//56
f 876//56 875//56 880//56
f 877//56 876//56 880//56
f 878//56 877//56 880//56
f 879//56 878//56 880//56
f 862//56 879//56 880//56
# Vertices: 880, normals: 434, texture coordinates: 0, faces: 1728

